<svg width="320" height="280" viewBox="0 0 320 280" fill="none" xmlns="http://www.w3.org/2000/svg">
<path d="M26.0074 261.107C26.0074 261.107 26.0074 261.068 26.0074 261.013C25.9995 261.076 26.0074 261.107 26.0074 261.107Z" fill="#131212"/>
<path d="M44.1114 221.93C26.6766 231.059 26.6609 247.027 26.6609 247.027C26.6609 247.027 26.6373 242.439 25.0716 240.243C25.2919 245.027 24.1983 247.003 24.1983 247.003C24.1983 247.003 23.1047 245.027 23.325 240.243C21.7593 242.439 21.7357 247.027 21.7357 247.027C21.7357 247.027 21.7199 231.067 4.28516 221.93C16.4565 232.345 6.99164 236.188 6.99164 236.188C6.99164 236.188 14.5682 240.031 11.7831 247.497C22.0189 252.603 22.3808 260.077 22.3887 261.011C22.4044 260.595 22.5618 258.901 24.1983 257.732C25.8347 258.901 25.9921 260.587 26.0078 261.011C26.0157 260.077 26.3776 252.603 36.6135 247.497C33.8283 240.031 41.4049 236.188 41.4049 236.188C41.4049 236.188 31.9401 232.345 44.1114 221.93Z" fill="#131212"/>
<path d="M139.641 219.813C139.641 219.813 139.641 219.774 139.641 219.718C139.633 219.781 139.641 219.813 139.641 219.813Z" fill="#131212"/>
<path d="M157.745 180.635C140.31 189.764 140.295 205.732 140.295 205.732C140.295 205.732 140.271 201.144 138.705 198.948C138.926 203.725 137.832 205.709 137.832 205.709C137.832 205.709 136.738 203.732 136.959 198.948C135.393 201.144 135.369 205.732 135.369 205.732C135.369 205.732 135.354 189.772 117.919 180.635C130.09 191.051 120.625 194.894 120.625 194.894C120.625 194.894 128.202 198.737 125.417 206.203C135.653 211.309 136.015 218.783 136.022 219.716C136.038 219.3 136.196 217.606 137.832 216.438C139.469 217.606 139.626 219.293 139.642 219.716C139.65 218.783 140.011 211.309 150.247 206.203C147.462 198.737 155.039 194.894 155.039 194.894C155.039 194.894 145.574 191.043 157.745 180.635Z" fill="#131212"/>
<path d="M67.8467 215.803C67.8467 215.803 67.8546 215.772 67.8704 215.717C67.8546 215.772 67.8467 215.803 67.8467 215.803Z" fill="#131212"/>
<path d="M95.1803 185.65C76.9272 188.968 72.4112 203.32 72.4112 203.32C72.4112 203.32 73.6779 199.195 72.8911 196.772C71.7424 201.132 70.2004 202.599 70.2004 202.599C70.2004 202.599 69.7755 200.513 71.3255 196.277C69.2956 197.815 67.9817 201.932 67.9817 201.932C67.9817 201.932 72.4741 187.58 59.3744 174.482C67.3759 187.258 57.7852 188.058 57.7852 188.058C57.7852 188.058 63.5128 193.642 58.9024 199.571C66.6599 207.038 64.8818 213.853 64.6222 214.692C64.7559 214.316 65.3696 212.842 67.1713 212.253C68.3121 213.759 67.9738 215.328 67.8715 215.704C68.139 214.865 70.578 208.253 81.2151 206.528C80.8217 199.038 88.713 197.705 88.713 197.705C88.713 197.705 81.3017 191.595 95.1803 185.65Z" fill="#131212"/>
<path d="M64.5986 214.788C64.5986 214.788 64.6065 214.756 64.6302 214.701C64.6065 214.756 64.5986 214.788 64.5986 214.788Z" fill="#131212"/>
<path d="M186.753 213.392C169.318 222.521 169.302 238.489 169.302 238.489C169.302 238.489 169.279 233.901 167.713 231.705C167.933 236.481 166.84 238.465 166.84 238.465C166.84 238.465 165.746 236.489 165.967 231.705C164.401 233.901 164.377 238.489 164.377 238.489C164.377 238.489 164.362 222.529 146.927 213.392C159.098 223.807 149.633 227.65 149.633 227.65C149.633 227.65 157.21 231.493 154.425 238.959C164.661 244.065 165.022 251.539 165.03 252.472C165.046 252.057 165.203 250.363 166.84 249.194C168.476 250.363 168.634 252.049 168.649 252.472C168.657 251.539 169.019 244.065 179.255 238.959C176.47 231.493 184.046 227.65 184.046 227.65C184.046 227.65 174.582 223.799 186.753 213.392Z" fill="#131212"/>
<path d="M97.3857 254.023C97.3857 254.023 97.3936 254 97.4094 253.945C97.3936 253.992 97.3857 254.023 97.3857 254.023Z" fill="#131212"/>
<path d="M121.004 227.982C105.237 230.853 101.335 243.244 101.335 243.244C101.335 243.244 102.428 239.676 101.752 237.59C100.76 241.354 99.4307 242.625 99.4307 242.625C99.4307 242.625 99.0609 240.821 100.398 237.166C98.6439 238.492 97.511 242.052 97.511 242.052C97.511 242.052 101.39 229.653 90.076 218.335C96.9917 229.37 88.707 230.068 88.707 230.068C88.707 230.068 93.6558 234.892 89.6747 240.013C96.378 246.46 94.8438 252.35 94.6156 253.079C94.7258 252.758 95.2608 251.479 96.8186 250.97C97.8021 252.271 97.5188 253.62 97.4244 253.95C97.6526 253.228 99.7611 247.511 108.958 246.021C108.612 239.55 115.441 238.397 115.441 238.397C115.441 238.397 109.014 233.119 121.004 227.982Z" fill="#131212"/>
<path d="M94.584 253.148C94.584 253.148 94.5919 253.125 94.6077 253.069C94.5919 253.125 94.584 253.148 94.584 253.148Z" fill="#131212"/>
<path d="M118.885 117.42C118.885 117.42 118.885 117.389 118.885 117.334C118.877 117.397 118.885 117.42 118.885 117.42Z" fill="#131212"/>
<path d="M134.141 83.0942C119.082 91.2665 119.271 105.156 119.271 105.156C119.271 105.156 119.192 101.164 117.799 99.274C118.051 103.431 117.131 105.164 117.131 105.164C117.131 105.164 116.155 103.454 116.289 99.2976C114.951 101.235 114.991 105.219 114.991 105.219C114.991 105.219 114.778 91.3214 99.4834 83.5962C110.207 92.5056 102.025 95.9722 102.025 95.9722C102.025 95.9722 108.673 99.2191 106.344 105.76C115.321 110.074 115.73 116.575 115.746 117.391C115.754 117.022 115.864 115.556 117.272 114.521C118.712 115.517 118.869 116.983 118.885 117.352C118.877 116.536 119.098 110.034 127.941 105.454C125.423 98.9917 131.969 95.5487 131.969 95.5487C131.969 95.5487 123.677 92.3096 134.141 83.0942Z" fill="#131212"/>
<path d="M115.739 117.467C115.739 117.467 115.739 117.436 115.739 117.38C115.731 117.436 115.739 117.467 115.739 117.467Z" fill="#131212"/>
<path d="M8.1972 184.049C-8.0181 192.535 -8.02596 207.382 -8.02596 207.382C-8.02596 207.382 -8.04957 203.123 -9.50509 201.076C-9.30054 205.523 -10.3155 207.358 -10.3155 207.358C-10.3155 207.358 -11.3304 205.523 -11.1258 201.076C-12.5814 203.123 -12.605 207.382 -12.605 207.382C-12.605 207.382 -12.6128 192.543 -28.8281 184.049C-17.5144 193.735 -26.3105 197.304 -26.3105 197.304C-26.3105 197.304 -19.2689 200.88 -21.8495 207.821C-12.3375 212.574 -11.9991 219.515 -11.9913 220.385C-11.9755 219.993 -11.8339 218.424 -10.3155 217.342C-8.797 218.424 -8.64751 220.001 -8.63964 220.385C-8.63178 219.515 -8.29347 212.574 1.21856 207.821C-1.36991 200.88 5.67955 197.304 5.67955 197.304C5.67955 197.304 -3.11654 193.727 8.1972 184.049Z" fill="#131212"/>
<path d="M40.0369 103.746C40.0369 103.746 40.0209 103.73 39.9971 103.698C40.0289 103.73 40.0369 103.746 40.0369 103.746Z" fill="#131212"/>
<path d="M34.3956 78.0503C29.2817 88.8813 35.1588 96.6535 35.1588 96.6535C35.1588 96.6535 33.4594 94.434 31.8859 93.9399C33.7584 96.1829 33.9551 97.5476 33.9551 97.5476C33.9551 97.5476 32.6962 96.9908 31.0361 94.583C31.0833 96.23 32.767 98.4652 32.767 98.4652C32.767 98.4652 26.8741 90.7008 15.0254 92.6537C24.7892 93.2576 21.6028 98.5985 21.6028 98.5985C21.6028 98.5985 26.7089 97.6888 28.1094 102.347C34.97 101.085 37.9046 104.583 38.2508 105.038C38.1013 104.826 37.5584 103.947 37.9204 102.779C39.1477 102.747 39.8479 103.508 40.0053 103.712C39.667 103.257 37.0864 99.4848 40.1784 93.2497C36.0714 90.6381 38.3373 85.9872 38.3373 85.9872C38.3373 85.9872 32.3186 87.5715 34.3956 78.0503Z" fill="#131212"/>
<path d="M38.282 105.069C38.282 105.069 38.2661 105.053 38.2422 105.021C38.2661 105.053 38.282 105.069 38.282 105.069Z" fill="#131212"/>
<path d="M160.341 98.7466C160.341 98.7466 160.349 98.731 160.357 98.7075C160.341 98.731 160.341 98.7466 160.341 98.7466Z" fill="#131212"/>
<path d="M172.89 86.1431C164.857 87.2176 162.591 93.3899 162.591 93.3899C162.591 93.3899 163.229 91.6175 162.938 90.543C162.347 92.4253 161.647 93.0292 161.647 93.0292C161.647 93.0292 161.506 92.1116 162.269 90.292C161.348 90.9194 160.695 92.6919 160.695 92.6919C160.695 92.6919 162.953 86.5196 157.501 80.5355C160.727 86.2765 156.525 86.4255 156.525 86.4255C156.525 86.4255 158.909 88.9823 156.777 91.4763C160.011 94.8958 159.09 97.829 158.964 98.1976C159.027 98.0407 159.326 97.4055 160.129 97.1859C160.593 97.8682 160.42 98.5427 160.365 98.7074C160.499 98.3466 161.702 95.5075 166.376 94.9742C166.36 91.6959 169.83 91.2724 169.83 91.2724C169.83 91.2724 166.706 88.4568 172.89 86.1431Z" fill="#131212"/>
<path d="M158.94 98.2389C158.94 98.2389 158.948 98.2233 158.956 98.1998C158.948 98.2233 158.94 98.2389 158.94 98.2389Z" fill="#131212"/>
<path d="M122.49 55.4889C114.103 60.2024 114.331 67.9982 114.331 67.9982C114.331 67.9982 114.253 65.7552 113.458 64.7042C113.639 67.0336 113.127 68.0218 113.127 68.0218C113.127 68.0218 112.561 67.0728 112.6 64.7356C111.869 65.8336 111.924 68.0688 111.924 68.0688C111.924 68.0688 111.688 60.273 103.033 56.0614C109.131 60.971 104.56 62.9867 104.56 62.9867C104.56 62.9867 108.32 64.7591 107.069 68.4453C112.144 70.7903 112.427 74.4372 112.443 74.8921C112.443 74.6882 112.498 73.8568 113.277 73.2686C114.095 73.8176 114.197 74.6411 114.205 74.845C114.197 74.3901 114.26 70.7354 119.193 68.0923C117.722 64.4846 121.373 62.5004 121.373 62.5004C121.373 62.5004 116.692 60.7514 122.49 55.4889Z" fill="#131212"/>
<path d="M44.6397 185.547C44.6397 185.547 44.6397 185.515 44.6318 185.452C44.6318 185.507 44.6397 185.547 44.6397 185.547Z" fill="#131212"/>
<path d="M59.8644 147.845C43.8773 157.241 44.6011 172.26 44.6011 172.26C44.6011 172.26 44.3651 167.947 42.7915 165.955C43.2242 170.441 42.288 172.354 42.288 172.354C42.288 172.354 41.1708 170.543 41.1551 166.033C39.7861 168.174 39.967 172.488 39.967 172.488C39.967 172.488 39.2196 157.469 22.3906 149.681C34.3259 158.92 25.6006 162.974 25.6006 162.974C25.6006 162.974 32.9097 166.245 30.636 173.397C40.502 177.735 41.1865 184.746 41.2416 185.624C41.2337 185.232 41.3045 183.632 42.7915 182.456C44.3808 183.475 44.609 185.06 44.6404 185.452C44.6011 184.574 44.6011 177.531 53.9951 172.252C51.029 165.359 57.984 161.39 57.984 161.39C57.984 161.39 48.8969 158.206 59.8644 147.845Z" fill="#131212"/>
<path d="M41.2428 185.707C41.2428 185.707 41.2428 185.676 41.2428 185.613C41.2349 185.668 41.2428 185.707 41.2428 185.707Z" fill="#131212"/>
<path d="M114.323 249.361C96.8885 258.491 96.8727 274.459 96.8727 274.459C96.8727 274.459 96.8491 269.87 95.2835 267.674C95.5038 272.459 94.4102 274.435 94.4102 274.435C94.4102 274.435 93.3166 272.459 93.5368 267.674C91.9712 269.87 91.9476 274.459 91.9476 274.459C91.9476 274.459 91.9319 258.498 74.4971 249.361C86.6684 259.777 77.2035 263.62 77.2035 263.62C77.2035 263.62 84.7801 267.463 81.995 274.929C92.2308 280.035 92.5927 287.509 92.6006 288.442C92.6163 288.027 92.7737 286.333 94.4102 285.164C96.0467 286.333 96.204 288.019 96.2197 288.442C96.2276 287.509 96.5895 280.035 106.825 274.929C104.04 267.463 111.617 263.62 111.617 263.62C111.617 263.62 102.152 259.777 114.323 249.361Z" fill="#131212"/>
<path d="M4.69496 269.097C-16.0757 279.967 -16.0836 298.986 -16.0836 298.986C-16.0836 298.986 -16.1151 293.527 -17.9797 290.908C-17.7122 296.602 -19.0182 298.954 -19.0182 298.954C-19.0182 298.954 -20.3243 296.602 -20.0568 290.908C-21.9214 293.527 -21.9529 298.986 -21.9529 298.986C-21.9529 298.986 -21.9686 279.975 -42.7314 269.097C-28.2392 281.496 -39.5057 286.077 -39.5057 286.077C-39.5057 286.077 -30.4815 290.657 -33.7938 299.551C-21.6067 305.637 -21.174 314.53 -21.1661 315.644C-21.1504 315.142 -20.9616 313.134 -19.0182 311.746C-17.0671 313.134 -16.8861 315.15 -16.8704 315.644C-16.8625 314.53 -16.4298 305.637 -4.24274 299.551C-7.55503 290.657 1.4692 286.077 1.4692 286.077C1.4692 286.077 -9.79731 281.504 4.69496 269.097Z" fill="#131212"/>
<path d="M155.432 237.356C137.997 246.485 137.981 262.453 137.981 262.453C137.981 262.453 137.958 257.865 136.392 255.669C136.612 260.453 135.519 262.43 135.519 262.43C135.519 262.43 134.425 260.453 134.645 255.669C133.08 257.865 133.056 262.453 133.056 262.453C133.056 262.453 133.04 246.493 115.605 237.356C127.777 247.771 118.312 251.614 118.312 251.614C118.312 251.614 125.889 255.457 123.103 262.924C133.339 268.029 133.701 275.504 133.709 276.437C133.725 276.021 133.882 274.327 135.519 273.159C137.155 274.327 137.312 276.013 137.328 276.437C137.336 275.504 137.698 268.029 147.934 262.924C145.149 255.457 152.725 251.614 152.725 251.614C152.725 251.614 143.26 247.771 155.432 237.356Z" fill="#131212"/>
<path d="M136.745 261.509C121.962 262.842 117.328 273.956 117.328 273.956C117.328 273.956 118.642 270.756 118.185 268.772C116.958 272.168 115.621 273.226 115.621 273.226C115.621 273.226 115.432 271.532 116.974 268.27C115.243 269.352 113.898 272.536 113.898 272.536C113.898 272.536 118.516 261.423 109.02 250.043C114.472 260.796 106.777 260.748 106.777 260.748C106.777 260.748 110.939 265.603 106.84 270.003C112.481 276.505 110.577 281.814 110.31 282.465C110.444 282.175 111.042 281.046 112.513 280.708C113.315 281.987 112.93 283.21 112.82 283.508C113.095 282.857 115.51 277.767 124.118 277.156C124.346 271.156 130.734 270.662 130.734 270.662C130.734 270.662 125.259 265.25 136.745 261.509Z" fill="#131212"/>
<path d="M155.54 276.216C155.54 276.216 155.548 276.192 155.571 276.145C155.548 276.192 155.54 276.216 155.54 276.216Z" fill="#131212"/>
<path d="M179.498 254.154C164.715 255.487 160.081 266.6 160.081 266.6C160.081 266.6 161.395 263.4 160.938 261.416C159.711 264.812 158.374 265.871 158.374 265.871C158.374 265.871 158.185 264.177 159.727 260.914C157.996 261.996 156.651 265.181 156.651 265.181C156.651 265.181 161.269 254.067 151.773 242.687C157.225 253.44 149.53 253.393 149.53 253.393C149.53 253.393 153.692 258.247 149.593 262.647C155.234 269.149 153.33 274.459 153.063 275.11C153.197 274.819 153.795 273.69 155.266 273.353C156.068 274.631 155.683 275.855 155.573 276.153C155.848 275.502 158.263 270.412 166.871 269.8C167.099 263.8 173.487 263.306 173.487 263.306C173.487 263.306 168.004 257.902 179.498 254.154Z" fill="#131212"/>
<path d="M153.023 275.173C153.023 275.173 153.031 275.15 153.055 275.103C153.031 275.15 153.023 275.173 153.023 275.173Z" fill="#131212"/>
<path d="M25.0967 252.435C7.66194 261.564 7.64621 277.532 7.64621 277.532C7.64621 277.532 7.62259 272.944 6.05692 270.748C6.27722 275.532 5.18362 277.508 5.18362 277.508C5.18362 277.508 4.09 275.532 4.3103 270.748C2.74463 272.944 2.72103 277.532 2.72103 277.532C2.72103 277.532 2.70529 261.572 -14.7295 252.435C-2.55819 262.85 -12.023 266.693 -12.023 266.693C-12.023 266.693 -4.44643 270.536 -7.23159 278.002C3.00426 283.108 3.36617 290.582 3.37404 291.516C3.38978 291.1 3.54714 289.406 5.18362 288.237C6.8201 289.406 6.97744 291.092 6.99318 291.516C7.00105 290.582 7.36297 283.108 17.5988 278.002C14.8137 270.536 22.3902 266.693 22.3902 266.693C22.3902 266.693 12.9254 262.85 25.0967 252.435Z" fill="#131212"/>
<path d="M6.4104 275.112C-8.37298 276.445 -13.0071 287.558 -13.0071 287.558C-13.0071 287.558 -11.6932 284.358 -12.1495 282.374C-13.3768 285.77 -14.7143 286.829 -14.7143 286.829C-14.7143 286.829 -14.9032 285.135 -13.3611 281.872C-15.092 282.954 -16.4374 286.139 -16.4374 286.139C-16.4374 286.139 -11.819 275.025 -21.3153 263.645C-15.863 274.398 -23.5576 274.351 -23.5576 274.351C-23.5576 274.351 -19.3956 279.205 -23.4947 283.605C-17.8535 290.107 -19.7575 295.417 -20.025 296.068C-19.8913 295.777 -19.2933 294.648 -17.8221 294.311C-17.0196 295.589 -17.4051 296.813 -17.5152 297.111C-17.2399 296.46 -14.8245 291.37 -6.21724 290.758C-5.98907 284.758 0.399477 284.264 0.399477 284.264C0.399477 284.264 -5.08429 278.86 6.4104 275.112Z" fill="#131212"/>
<path d="M49.1545 271.449C34.3711 272.782 29.7371 283.896 29.7371 283.896C29.7371 283.896 31.051 280.696 30.5947 278.719C29.3673 282.115 28.0298 283.174 28.0298 283.174C28.0298 283.174 27.841 281.48 29.383 278.218C27.6521 279.3 26.3068 282.484 26.3068 282.484C26.3068 282.484 30.9251 271.371 21.4288 259.991C26.8811 270.743 19.1865 270.696 19.1865 270.696C19.1865 270.696 23.3485 275.551 19.2495 279.951C24.8906 286.452 22.9866 291.762 22.7191 292.413C22.8529 292.123 23.4508 290.993 24.9221 290.656C25.7246 291.935 25.339 293.158 25.2289 293.456C25.5043 292.805 27.9197 287.715 36.5269 287.103C36.7551 281.104 43.1436 280.61 43.1436 280.61C43.1436 280.61 37.6677 275.198 49.1545 271.449Z" fill="#131212"/>
<path d="M36.7871 271.779C36.7871 271.779 36.795 271.756 36.8185 271.709C36.795 271.756 36.7871 271.779 36.7871 271.779Z" fill="#131212"/>
<path d="M60.7366 249.716C45.9532 251.049 41.3191 262.163 41.3191 262.163C41.3191 262.163 42.633 258.963 42.1767 256.987C40.9493 260.382 39.6118 261.441 39.6118 261.441C39.6118 261.441 39.423 259.747 40.9651 256.485C39.2342 257.567 37.8888 260.751 37.8888 260.751C37.8888 260.751 42.5071 249.638 33.0108 238.258C38.4632 249.01 30.7686 248.963 30.7686 248.963C30.7686 248.963 34.9306 253.818 30.8315 258.218C36.4726 264.72 34.5686 270.029 34.3011 270.68C34.4349 270.39 35.0328 269.261 36.5041 268.923C37.3066 270.202 36.9211 271.425 36.8109 271.723C37.0863 271.072 39.5017 265.982 48.1089 265.371C48.3371 259.371 54.7257 258.877 54.7257 258.877C54.7257 258.877 49.2497 253.465 60.7366 249.716Z" fill="#131212"/>
<path d="M34.2705 270.731C34.2705 270.731 34.2783 270.707 34.3019 270.66C34.2783 270.707 34.2705 270.731 34.2705 270.731Z" fill="#131212"/>
<path d="M357.717 221.93C340.282 231.059 340.266 247.027 340.266 247.027C340.266 247.027 340.243 242.439 338.677 240.243C338.897 245.027 337.804 247.003 337.804 247.003C337.804 247.003 336.71 245.027 336.93 240.243C335.365 242.439 335.341 247.027 335.341 247.027C335.341 247.027 335.325 231.067 317.891 221.93C330.062 232.345 320.597 236.188 320.597 236.188C320.597 236.188 328.174 240.031 325.389 247.497C335.624 252.603 335.986 260.077 335.994 261.011C336.01 260.595 336.167 258.901 337.804 257.732C339.44 258.901 339.598 260.587 339.613 261.011C339.621 260.077 339.983 252.603 350.219 247.497C347.434 240.031 355.01 236.188 355.01 236.188C355.01 236.188 345.546 232.345 357.717 221.93Z" fill="#131212"/>
<path d="M227.115 233.655C207.934 243.701 207.918 261.261 207.918 261.261C207.918 261.261 207.886 256.219 206.163 253.795C206.407 259.058 205.203 261.23 205.203 261.23C205.203 261.23 204 259.058 204.244 253.795C202.521 256.211 202.489 261.261 202.489 261.261C202.489 261.261 202.473 243.701 183.292 233.655C196.683 245.113 186.274 249.34 186.274 249.34C186.274 249.34 194.614 253.568 191.545 261.787C202.804 267.41 203.205 275.63 203.213 276.657C203.229 276.194 203.402 274.335 205.203 273.057C207.005 274.335 207.178 276.202 207.194 276.657C207.202 275.63 207.603 267.41 218.862 261.787C215.801 253.575 224.133 249.34 224.133 249.34C224.133 249.34 213.724 245.105 227.115 233.655Z" fill="#131212"/>
<path d="M203.22 276.763C203.22 276.763 203.22 276.724 203.22 276.653C203.212 276.724 203.22 276.763 203.22 276.763Z" fill="#131212"/>
<path d="M190.344 239.098C190.344 239.098 190.352 239.075 190.367 239.019C190.352 239.067 190.344 239.098 190.344 239.098Z" fill="#131212"/>
<path d="M213.954 213.044C198.187 215.914 194.285 228.306 194.285 228.306C194.285 228.306 195.386 224.737 194.702 222.651C193.711 226.416 192.381 227.686 192.381 227.686C192.381 227.686 192.011 225.882 193.349 222.228C191.594 223.553 190.461 227.114 190.461 227.114C190.461 227.114 194.34 214.714 183.026 203.397C189.942 214.432 181.657 215.13 181.657 215.13C181.657 215.13 186.606 219.953 182.625 225.075C189.328 231.521 187.794 237.411 187.566 238.141C187.676 237.819 188.211 236.541 189.769 236.031C190.752 237.333 190.469 238.682 190.375 239.011C190.603 238.29 192.711 232.572 201.909 231.082C201.562 224.612 208.392 223.459 208.392 223.459C208.392 223.459 201.964 218.189 213.954 213.044Z" fill="#131212"/>
<path d="M187.534 238.216C187.534 238.216 187.542 238.193 187.558 238.138C187.542 238.185 187.534 238.216 187.534 238.216Z" fill="#131212"/>
<path d="M263.512 224.455C246.077 233.584 246.061 249.552 246.061 249.552C246.061 249.552 246.038 244.964 244.472 242.768C244.692 247.544 243.599 249.529 243.599 249.529C243.599 249.529 242.505 247.552 242.725 242.768C241.16 244.964 241.136 249.552 241.136 249.552C241.136 249.552 241.12 233.592 223.686 224.455C235.857 234.87 226.392 238.713 226.392 238.713C226.392 238.713 233.969 242.556 231.183 250.023C241.419 255.128 241.781 262.603 241.789 263.536C241.805 263.12 241.962 261.426 243.599 260.258C245.235 261.426 245.393 263.112 245.408 263.536C245.416 262.603 245.778 255.128 256.014 250.023C253.229 242.556 260.805 238.713 260.805 238.713C260.805 238.713 251.34 234.87 263.512 224.455Z" fill="#131212"/>
<path d="M255.029 266.799C240.781 274.257 240.773 287.3 240.773 287.3C240.773 287.3 240.749 283.551 239.475 281.755C239.655 285.661 238.766 287.276 238.766 287.276C238.766 287.276 237.87 285.661 238.058 281.755C236.776 283.551 236.76 287.3 236.76 287.3C236.76 287.3 236.752 274.257 222.504 266.799C232.449 275.308 224.715 278.445 224.715 278.445C224.715 278.445 230.907 281.59 228.633 287.684C236.996 291.856 237.295 297.966 237.295 298.727C237.303 298.382 237.437 297.001 238.774 296.052C240.112 297.001 240.238 298.39 240.253 298.727C240.261 297.966 240.552 291.856 248.916 287.684C246.642 281.582 252.834 278.445 252.834 278.445C252.834 278.445 245.092 275.308 255.029 266.799Z" fill="#131212"/>
<path d="M248.884 183.301C232 192.14 231.992 207.598 231.992 207.598C231.992 207.598 231.968 203.159 230.45 201.034C230.662 205.661 229.608 207.575 229.608 207.575C229.608 207.575 228.546 205.661 228.766 201.034C227.248 203.159 227.224 207.598 227.224 207.598C227.224 207.598 227.208 192.14 210.332 183.301C222.118 193.387 212.952 197.104 212.952 197.104C212.952 197.104 220.293 200.83 217.594 208.053C227.499 213.002 227.853 220.233 227.861 221.135C227.877 220.727 228.026 219.096 229.608 217.966C231.189 219.096 231.347 220.735 231.354 221.135C231.362 220.233 231.716 212.994 241.622 208.053C238.923 200.822 246.264 197.104 246.264 197.104C246.264 197.104 237.098 193.387 248.884 183.301Z" fill="#131212"/>
<path d="M227.854 221.243C227.854 221.243 227.854 221.211 227.854 221.148C227.846 221.211 227.854 221.243 227.854 221.243Z" fill="#131212"/>
<path d="M304.972 220.475C304.972 220.475 304.972 220.443 304.972 220.38C304.964 220.443 304.972 220.475 304.972 220.475Z" fill="#131212"/>
<path d="M321.803 184.049C305.587 192.535 305.58 207.382 305.58 207.382C305.58 207.382 305.556 203.123 304.1 201.076C304.305 205.523 303.29 207.358 303.29 207.358C303.29 207.358 302.275 205.523 302.48 201.076C301.024 203.123 301.001 207.382 301.001 207.382C301.001 207.382 300.985 192.543 284.777 184.049C296.091 193.735 287.295 197.304 287.295 197.304C287.295 197.304 294.337 200.88 291.756 207.821C301.268 212.574 301.606 219.515 301.614 220.385C301.63 219.993 301.772 218.424 303.29 217.342C304.808 218.424 304.958 220.001 304.966 220.385C304.974 219.515 305.312 212.574 314.824 207.821C312.236 200.88 319.285 197.304 319.285 197.304C319.285 197.304 310.489 193.727 321.803 184.049Z" fill="#131212"/>
<path d="M281.475 153.932C281.475 153.932 281.459 153.9 281.436 153.845C281.459 153.9 281.475 153.932 281.475 153.932Z" fill="#131212"/>
<path d="M282.615 113.305C270.9 127.65 276.809 141.485 276.809 141.485C276.809 141.485 275.086 137.524 272.914 136.199C274.881 140.261 274.669 142.371 274.669 142.371C274.669 142.371 272.985 141.061 271.404 136.842C270.861 139.328 272.544 143.304 272.544 143.304C272.544 143.304 266.604 129.477 248.115 128.003C262.521 132.536 255.755 139.359 255.755 139.359C255.755 139.359 263.748 139.893 264.11 147.39C274.873 148.041 277.965 154.378 278.311 155.186C278.17 154.817 277.674 153.296 278.658 151.68C280.506 152.088 281.27 153.492 281.435 153.853C281.097 153.045 278.634 146.433 285.605 138.238C280.42 132.795 285.558 126.67 285.558 126.67C285.558 126.67 275.943 126.819 282.615 113.305Z" fill="#131212"/>
<path d="M278.343 155.268C278.343 155.268 278.335 155.236 278.304 155.181C278.327 155.236 278.343 155.268 278.343 155.268Z" fill="#131212"/>
<path d="M164.92 9.24737C164.92 9.24737 164.92 9.23892 164.928 9.23047C164.92 9.23892 164.92 9.24737 164.92 9.24737Z" fill="#131212"/>
<path d="M171.27 3.03931C166.502 3.6589 165.746 6.64702 165.746 6.64702C165.746 6.64702 165.959 5.78431 165.676 5.27452C165.503 6.18429 165.141 6.48232 165.141 6.48232C165.141 6.48232 164.96 6.04312 165.243 5.16472C164.747 5.47844 164.527 6.33331 164.527 6.33331C164.527 6.33331 165.282 3.34518 161.38 0.545288C163.913 3.25891 161.38 3.3844 161.38 3.3844C161.38 3.3844 163.079 4.57651 162.033 5.79999C164.33 7.39209 164.071 8.81949 164.031 8.99203C164.055 8.9136 164.173 8.60773 164.637 8.49009C164.991 8.81164 164.944 9.1332 164.928 9.21947C164.975 9.04693 165.416 7.66659 168.201 7.35287C167.863 5.78431 169.932 5.53334 169.932 5.53334C169.932 5.53334 167.753 4.23142 171.27 3.03931Z" fill="#131212"/>
<path d="M164.017 9.02691C164.017 9.02691 164.017 9.01846 164.025 9.01001C164.025 9.01846 164.017 9.02691 164.017 9.02691Z" fill="#131212"/>
<path d="M109.545 162.42C109.545 162.42 109.537 162.397 109.514 162.35C109.537 162.397 109.545 162.42 109.545 162.42Z" fill="#131212"/>
<path d="M110.333 127.482C100.325 139.874 105.478 151.74 105.478 151.74C105.478 151.74 103.976 148.344 102.103 147.207C103.818 150.689 103.637 152.509 103.637 152.509C103.637 152.509 102.182 151.395 100.805 147.764C100.349 149.905 101.812 153.316 101.812 153.316C101.812 153.316 96.6429 141.458 80.7266 140.274C93.1418 144.101 87.3512 149.999 87.3512 149.999C87.3512 149.999 94.2275 150.422 94.5737 156.861C103.834 157.371 106.517 162.806 106.824 163.496C106.698 163.183 106.265 161.873 107.107 160.485C108.696 160.822 109.365 162.03 109.507 162.336C109.208 161.638 107.068 155.967 113.016 148.885C108.531 144.234 112.921 138.94 112.921 138.94C112.921 138.94 104.66 139.137 110.333 127.482Z" fill="#131212"/>
<path d="M106.861 163.582C106.861 163.582 106.854 163.559 106.83 163.512C106.846 163.559 106.861 163.582 106.861 163.582Z" fill="#131212"/>
<path d="M244.628 40.2674C244.628 40.2674 244.62 40.2593 244.604 40.243C244.62 40.2593 244.628 40.2674 244.628 40.2674Z" fill="#131212"/>
<path d="M239.599 25.7122C237.357 32.355 241.307 36.4725 241.307 36.4725C241.307 36.4725 240.166 35.2961 239.222 35.1157C240.465 36.2922 240.669 37.0764 240.669 37.0764C240.669 37.0764 239.898 36.8333 238.773 35.5471C238.915 36.4961 240.04 37.6882 240.04 37.6882C240.04 37.6882 236.09 33.5707 229.332 35.5079C235.052 35.202 233.557 38.5195 233.557 38.5195C233.557 38.5195 236.46 37.649 237.593 40.2606C241.495 39.0607 243.439 40.9037 243.675 41.139C243.573 41.0292 243.195 40.5508 243.329 39.8528C244.037 39.7508 244.501 40.1508 244.603 40.2528C244.375 40.0097 242.621 37.9941 243.997 34.1589C241.433 32.9197 242.44 30.0649 242.44 30.0649C242.44 30.0649 239.041 31.3904 239.599 25.7122Z" fill="#131212"/>
<path d="M243.691 41.1627C243.691 41.1627 243.683 41.1546 243.667 41.1383C243.683 41.1464 243.691 41.1627 243.691 41.1627Z" fill="#131212"/>
<path d="M240.538 109.785C240.538 109.785 240.538 109.769 240.53 109.738C240.538 109.769 240.538 109.785 240.538 109.785Z" fill="#131212"/>
<path d="M247.729 89.9556C239.617 95.124 240.27 102.896 240.27 102.896C240.27 102.896 240.066 100.661 239.216 99.6572C239.523 101.979 239.074 102.983 239.074 102.983C239.074 102.983 238.461 102.065 238.366 99.7278C237.698 100.865 237.871 103.1 237.871 103.1C237.871 103.1 237.202 95.3279 228.335 91.5947C234.692 96.1671 230.247 98.4258 230.247 98.4258C230.247 98.4258 234.094 99.9866 233.048 103.735C238.24 105.806 238.728 109.429 238.775 109.884C238.767 109.68 238.767 108.849 239.523 108.214C240.365 108.716 240.514 109.531 240.538 109.735C240.498 109.28 240.373 105.626 245.14 102.716C243.472 99.1944 247.005 97.0063 247.005 97.0063C247.005 97.0063 242.237 95.524 247.729 89.9556Z" fill="#131212"/>
<path d="M172.269 189.527C172.269 189.527 172.276 189.496 172.292 189.441C172.276 189.496 172.269 189.527 172.269 189.527Z" fill="#131212"/>
<path d="M199.602 159.368C181.349 162.685 176.833 177.038 176.833 177.038C176.833 177.038 178.1 172.912 177.313 170.497C176.164 174.857 174.622 176.324 174.622 176.324C174.622 176.324 174.197 174.238 175.747 170.003C173.717 171.54 172.404 175.657 172.404 175.657C172.404 175.657 176.896 161.305 163.796 148.199C171.798 160.975 162.207 161.775 162.207 161.775C162.207 161.775 167.935 167.36 163.324 173.289C171.082 180.755 169.304 187.571 169.044 188.41C169.178 188.033 169.791 186.559 171.593 185.971C172.734 187.476 172.396 189.045 172.293 189.421C172.561 188.582 175 181.971 185.637 180.245C185.244 172.755 193.135 171.422 193.135 171.422C193.135 171.422 185.716 165.32 199.602 159.368Z" fill="#131212"/>
<path d="M169.021 188.505C169.021 188.505 169.028 188.474 169.052 188.418C169.028 188.474 169.021 188.505 169.021 188.505Z" fill="#131212"/>
<path d="M137.691 182.24C137.691 182.24 137.691 182.208 137.684 182.145C137.691 182.2 137.691 182.24 137.691 182.24Z" fill="#131212"/>
<path d="M152.916 144.538C136.929 153.934 137.653 168.953 137.653 168.953C137.653 168.953 137.417 164.64 135.843 162.647C136.276 167.134 135.34 169.047 135.34 169.047C135.34 169.047 134.223 167.236 134.207 162.726C132.838 164.867 133.019 169.181 133.019 169.181C133.019 169.181 132.271 154.161 115.442 146.374C127.378 155.612 118.652 159.667 118.652 159.667C118.652 159.667 125.961 162.938 123.688 170.09C133.554 174.427 134.238 181.439 134.293 182.317C134.286 181.925 134.356 180.325 135.843 179.149C137.433 180.168 137.661 181.753 137.692 182.145C137.653 181.266 137.653 174.223 147.047 168.945C144.081 162.051 151.036 158.083 151.036 158.083C151.036 158.083 141.949 154.899 152.916 144.538Z" fill="#131212"/>
<path d="M134.295 182.4C134.295 182.4 134.295 182.368 134.295 182.305C134.287 182.361 134.295 182.4 134.295 182.4Z" fill="#131212"/>
<path d="M224.305 272.033C224.305 272.033 224.313 272.01 224.336 271.963C224.313 272.01 224.305 272.033 224.305 272.033Z" fill="#131212"/>
<path d="M248.263 249.971C233.48 251.305 228.845 262.418 228.845 262.418C228.845 262.418 230.159 259.218 229.703 257.234C228.476 260.63 227.138 261.688 227.138 261.688C227.138 261.688 226.949 259.994 228.491 256.732C226.761 257.814 225.415 260.998 225.415 260.998C225.415 260.998 230.033 249.885 220.537 238.505C225.989 249.258 218.295 249.21 218.295 249.21C218.295 249.21 222.457 254.065 218.358 258.465C223.999 264.967 222.095 270.276 221.828 270.927C221.961 270.637 222.559 269.508 224.03 269.171C224.833 270.449 224.447 271.672 224.337 271.97C224.613 271.319 227.028 266.229 235.635 265.618C235.863 259.618 242.252 259.124 242.252 259.124C242.252 259.124 236.768 253.72 248.263 249.971Z" fill="#131212"/>
<path d="M221.788 271.004C221.788 271.004 221.796 270.981 221.819 270.934C221.796 270.981 221.788 271.004 221.788 271.004Z" fill="#131212"/>
<path d="M263.62 265.533C263.62 265.533 263.628 265.509 263.652 265.462C263.628 265.509 263.62 265.533 263.62 265.533Z" fill="#131212"/>
<path d="M287.578 243.464C272.795 244.797 268.161 255.911 268.161 255.911C268.161 255.911 269.475 252.711 269.018 250.727C267.791 254.122 266.454 255.181 266.454 255.181C266.454 255.181 266.265 253.487 267.807 250.225C266.076 251.307 264.731 254.491 264.731 254.491C264.731 254.491 269.349 243.378 259.853 231.998C265.305 242.75 257.61 242.703 257.61 242.703C257.61 242.703 261.772 247.558 257.673 251.958C263.314 258.46 261.41 263.769 261.143 264.42C261.277 264.13 261.875 263.001 263.346 262.663C264.148 263.942 263.763 265.165 263.653 265.463C263.928 264.812 266.344 259.722 274.951 259.111C275.179 253.111 281.567 252.617 281.567 252.617C281.567 252.617 276.084 247.213 287.578 243.464Z" fill="#131212"/>
<path d="M261.104 264.497C261.104 264.497 261.111 264.474 261.135 264.427C261.111 264.474 261.104 264.497 261.104 264.497Z" fill="#131212"/>
<path d="M178.201 267.735C178.201 267.735 178.217 267.703 178.241 267.64C178.209 267.703 178.201 267.735 178.201 267.735Z" fill="#131212"/>
<path d="M210.08 238.38C190.402 240.16 184.242 254.944 184.242 254.944C184.242 254.944 185.989 250.685 185.383 248.05C183.746 252.568 181.968 253.979 181.968 253.979C181.968 253.979 181.717 251.728 183.77 247.384C181.473 248.819 179.679 253.062 179.679 253.062C179.679 253.062 185.823 238.27 173.188 223.126C180.45 237.439 170.198 237.368 170.198 237.368C170.198 237.368 175.737 243.831 170.277 249.681C177.791 258.332 175.249 265.399 174.887 266.261C175.06 265.877 175.855 264.371 177.822 263.916C178.892 265.626 178.381 267.249 178.231 267.642C178.593 266.779 181.811 259.995 193.266 259.187C193.565 251.203 202.07 250.544 202.07 250.544C202.07 250.544 194.785 243.36 210.08 238.38Z" fill="#131212"/>
<path d="M174.847 266.359C174.847 266.359 174.862 266.327 174.886 266.264C174.862 266.327 174.847 266.359 174.847 266.359Z" fill="#131212"/>
<path d="M312.354 272.838C294.919 281.967 294.903 297.935 294.903 297.935C294.903 297.935 294.879 293.347 293.314 291.151C293.534 295.927 292.44 297.912 292.44 297.912C292.44 297.912 291.347 295.935 291.567 291.151C290.001 293.347 289.978 297.935 289.978 297.935C289.978 297.935 289.962 281.975 272.527 272.838C284.699 283.253 275.234 287.096 275.234 287.096C275.234 287.096 282.81 290.939 280.025 298.406C290.261 303.511 290.623 310.986 290.631 311.919C290.647 311.503 290.804 309.809 292.44 308.641C294.077 309.809 294.234 311.496 294.25 311.919C294.258 310.986 294.62 303.511 304.856 298.406C302.071 290.939 309.647 287.096 309.647 287.096C309.647 287.096 300.182 283.253 312.354 272.838Z" fill="#131212"/>
<path d="M338.701 252.435C321.266 261.564 321.251 277.532 321.251 277.532C321.251 277.532 321.227 272.944 319.661 270.748C319.882 275.532 318.788 277.508 318.788 277.508C318.788 277.508 317.695 275.532 317.915 270.748C316.349 272.944 316.326 277.532 316.326 277.532C316.326 277.532 316.31 261.572 298.875 252.435C311.046 262.85 301.581 266.693 301.581 266.693C301.581 266.693 309.158 270.536 306.373 278.002C316.609 283.108 316.971 290.582 316.979 291.516C316.994 291.1 317.152 289.406 318.788 288.237C320.425 289.406 320.582 291.092 320.598 291.516C320.606 290.582 320.967 283.108 331.203 278.002C328.418 270.536 335.995 266.693 335.995 266.693C335.995 266.693 326.53 262.85 338.701 252.435Z" fill="#131212"/>
<path d="M320.018 275.112C305.234 276.445 300.6 287.558 300.6 287.558C300.6 287.558 301.914 284.358 301.458 282.374C300.231 285.77 298.893 286.829 298.893 286.829C298.893 286.829 298.704 285.135 300.246 281.872C298.515 282.954 297.17 286.139 297.17 286.139C297.17 286.139 301.788 275.025 292.292 263.645C297.744 274.398 290.05 274.351 290.05 274.351C290.05 274.351 294.212 279.205 290.113 283.605C295.754 290.107 293.85 295.417 293.582 296.068C293.716 295.777 294.314 294.648 295.785 294.311C296.588 295.589 296.202 296.813 296.092 297.111C296.368 296.46 298.783 291.37 307.39 290.758C307.618 284.758 314.007 284.264 314.007 284.264C314.007 284.264 308.531 278.86 320.018 275.112Z" fill="#131212"/>
<path d="M313.354 243.195C295.919 252.324 295.903 268.292 295.903 268.292C295.903 268.292 295.879 263.704 294.314 261.508C294.534 266.284 293.44 268.269 293.44 268.269C293.44 268.269 292.347 266.292 292.567 261.508C291.001 263.704 290.978 268.292 290.978 268.292C290.978 268.292 290.962 252.332 273.527 243.195C285.699 253.61 276.234 257.453 276.234 257.453C276.234 257.453 283.81 261.296 281.025 268.763C291.261 273.868 291.623 281.343 291.631 282.276C291.647 281.86 291.804 280.166 293.44 278.998C295.077 280.166 295.234 281.852 295.25 282.276C295.258 281.343 295.62 273.868 305.856 268.763C303.07 261.296 310.647 257.453 310.647 257.453C310.647 257.453 301.182 253.61 313.354 243.195Z" fill="#131212"/>
<path d="M9.94342 218.024C2.8389 217.899 -6.30334 221.687 -6.30334 221.687C-9.0885 226.479 -11.0318 230.534 -12.3693 232.251C-12.8099 231.365 -14.1238 228.871 -15.4692 228.087C-13.935 231.106 -14.706 231.279 -14.706 231.279C-14.706 231.279 -15.3512 231.741 -16.5943 228.589C-16.9011 230.118 -15.9098 232.753 -15.5321 233.671C-17.7036 233.53 -22.0387 232.275 -27.4831 231.169C-27.4831 231.169 -36.3972 235.467 -41.0234 240.839C-34.2887 237.678 -34.6349 246.117 -34.6349 246.117C-34.6349 246.117 -29.7018 239.216 -24.1315 249.678C-21.7948 239.749 -8.34107 245.419 -8.34107 245.419C-8.34107 245.419 -3.65194 231.632 5.34082 236.486C1.20242 225.389 9.65232 226.298 9.65232 226.298C9.65232 226.298 3.09854 220.942 9.94342 218.024Z" fill="#131212"/>
<path d="M102.374 242.899C95.4662 236.225 82.9172 231.527 82.9172 231.527C75.7183 233.692 70.0299 235.911 67.111 236.374C67.5044 235.088 68.5115 231.417 67.9135 229.394C66.6232 233.794 65.7027 233.253 65.7027 233.253C65.7027 233.253 64.6406 233.119 66.3321 228.853C64.617 230.084 63.1457 233.606 62.6658 234.853C60.6517 232.704 57.5282 227.472 53.1774 221.355C53.1774 221.355 40.3845 217.379 30.8174 218.414C40.4081 221.504 32.2336 229.527 32.2336 229.527C32.2336 229.527 43.5158 227.261 39.3066 242.735C50.8328 235.08 58.8657 253.095 58.8657 253.095C58.8657 253.095 76.3083 243.793 80.6907 256.891C86.9061 242.107 94.4119 250.797 94.4119 250.797C94.4119 250.797 92.8934 239.464 102.374 242.899Z" fill="#131212"/>
<path d="M66.5902 205.925C57.5031 201.666 39.1084 205.674 39.1084 205.674C34.0416 210.074 25.159 220.191 25.159 220.191C25.1118 218.795 24.8601 214.827 23.5776 213.031C23.7979 217.815 22.7043 217.587 22.7043 217.587C22.7043 217.587 21.6107 217.815 21.831 213.031C20.5564 214.827 20.3047 218.795 20.2496 220.191C17.5274 218.756 12.673 214.638 6.30018 210.074C6.30018 210.074 -12.0945 214.866 -21.1816 219.124C-10.6625 218.936 -9.82856 226.089 -9.82856 226.089C-9.82856 226.089 3.18458 217.846 4.29393 234.528C13.0664 223.085 22.7043 239.469 22.7043 239.469C22.7043 239.469 31.4532 221.32 40.2335 232.763C41.3428 216.074 52.5858 221.681 52.5858 221.681C52.5858 221.681 56.079 205.737 66.5902 205.925Z" fill="#131212"/>
<path d="M98.4385 209.333C91.334 209.207 82.1918 212.995 82.1918 212.995C79.4066 217.787 77.4633 221.842 76.1258 223.56C75.6852 222.673 74.3713 220.179 73.0259 219.395C74.5601 222.415 73.7891 222.587 73.7891 222.587C73.7891 222.587 73.1439 223.05 71.9008 219.897C71.594 221.426 72.5853 224.062 72.963 224.979C70.7915 224.838 66.4564 223.583 61.012 222.477C61.012 222.477 52.0979 226.775 47.4717 232.147C54.2064 228.987 53.8602 237.426 53.8602 237.426C53.8602 237.426 58.7933 230.524 64.3636 240.986C66.7003 231.057 80.154 236.728 80.154 236.728C80.154 236.728 84.8432 222.94 93.8359 227.795C89.6975 216.697 98.1474 217.607 98.1474 217.607C98.1474 217.607 91.5937 212.25 98.4385 209.333Z" fill="#131212"/>
<path d="M183.229 200.18C176.124 200.054 166.982 203.842 166.982 203.842C164.197 208.634 162.253 212.689 160.916 214.407C160.475 213.52 159.161 211.026 157.816 210.242C159.35 213.262 158.579 213.434 158.579 213.434C158.579 213.434 157.934 213.897 156.691 210.744C156.384 212.273 157.375 214.909 157.753 215.826C155.582 215.685 151.246 214.43 145.802 213.324C145.802 213.324 136.888 217.622 132.262 222.995C138.996 219.834 138.65 228.273 138.65 228.273C138.65 228.273 143.583 221.371 149.154 231.834C151.49 221.904 164.944 227.575 164.944 227.575C164.944 227.575 169.633 213.787 178.626 218.642C174.488 207.544 182.937 208.454 182.937 208.454C182.937 208.454 176.384 203.097 183.229 200.18Z" fill="#131212"/>
<path d="M152.112 228.661C146.597 220.301 134.89 212.685 134.89 212.685C127.062 213.258 120.768 214.23 117.691 214.042C118.384 212.826 120.248 209.305 120.099 207.117C117.786 211.305 116.968 210.544 116.968 210.544C116.968 210.544 115.913 210.168 118.612 206.207C116.582 207.07 114.285 210.324 113.514 211.493C111.948 208.85 109.957 202.811 106.921 195.603C106.921 195.603 94.7964 188.655 84.8202 187.557C93.8838 192.874 83.7266 199.188 83.7266 199.188C83.7266 199.188 95.7326 199.431 87.9279 214.238C101.405 209.054 105.489 229.218 105.489 229.218C105.489 229.218 125.362 223.696 126.849 238.025C136.542 224.371 142.207 234.927 142.207 234.927C142.207 234.927 143.246 223.03 152.112 228.661Z" fill="#131212"/>
<path d="M122.404 180.439C118.825 173.318 105.339 166.801 105.339 166.801C99.9972 167.067 89.4466 169.036 89.4466 169.036C90.1075 168.134 91.9092 165.53 91.9957 163.781C89.7771 166.879 89.2027 166.205 89.2027 166.205C89.2027 166.205 88.4081 165.805 90.91 162.926C89.2263 163.42 87.1099 165.781 86.3861 166.628C85.3948 164.393 84.3877 159.436 82.6568 153.46C82.6568 153.46 68.7861 147.437 60.9971 145.641C67.6689 150.684 64.6555 155.57 64.6555 155.57C64.6555 155.57 76.8662 156.793 69.3211 167.781C80.4617 164.926 78.3925 179.906 78.3925 179.906C78.3925 179.906 92.8219 172.848 92.6645 184.314C101.594 174.416 105.866 183.443 105.866 183.443C105.866 183.443 115.913 175.161 122.404 180.439Z" fill="#131212"/>
<path d="M81.5391 112.325C76.4173 111.462 67.8022 116.011 67.8022 116.011C65.8903 118.905 62.8691 125.187 62.8691 125.187C62.6488 124.497 61.9722 122.552 61.0832 121.839C61.8621 124.191 61.2877 124.231 61.2877 124.231C61.2877 124.231 60.7763 124.497 60.2177 122.082C59.8322 123.156 60.2571 125.164 60.4302 125.87C58.8724 125.533 55.8748 124.152 52.0589 122.756C52.0589 122.756 43.554 127.697 39.6201 131.085C44.8364 129.532 46.2526 132.983 46.2526 132.983C46.2526 132.983 51.5869 127.07 54.4743 135.234C57.2516 128.309 64.3482 135.148 64.3482 135.148C64.3482 135.148 66.1814 124.882 72.153 129.375C70.3749 120.897 76.7635 122.137 76.7635 122.137C76.7635 122.137 76.2757 113.698 81.5391 112.325Z" fill="#131212"/>
<path d="M28.4632 45.9075C25.7409 42.8958 18.2431 41.5155 18.2431 41.5155C15.6625 42.3625 10.7451 44.7546 10.7451 44.7546C10.9497 44.2212 11.4768 42.6997 11.2801 41.837C10.6114 43.6566 10.2337 43.3978 10.2337 43.3978C10.2337 43.3978 9.79314 43.3115 10.6271 41.5625C9.86395 42.0331 9.148 43.4762 8.91197 43.986C8.1252 43.0213 6.96078 40.7312 5.3007 38.0254C5.3007 38.0254 -2.32309 36.9353 -6.38281 37.1C-2.42537 38.6764 -3.2436 41.4763 -3.2436 41.4763C-3.2436 41.4763 2.91679 40.4332 0.698103 46.8408C5.78063 43.9389 6.79556 51.57 6.79556 51.57C6.79556 51.57 12.9245 46.1663 14.3957 51.8131C17.4405 45.7584 20.7528 49.6093 20.7528 49.6093C20.7528 49.6093 24.5687 44.1899 28.4632 45.9075Z" fill="#131212"/>
<path d="M22.3906 82.7343C21.0059 81.8402 17.9139 82.0912 17.9139 82.0912C16.9933 82.6951 15.3175 84.1538 15.3175 84.1538C15.3411 83.9264 15.3883 83.2754 15.2152 82.9539C15.1444 83.7382 14.9713 83.6754 14.9713 83.6754C14.9713 83.6754 14.7904 83.6911 14.932 82.9147C14.6802 83.1813 14.5543 83.8244 14.515 84.044C14.1059 83.746 13.3978 82.9696 12.4616 82.0912C12.4616 82.0912 9.35381 82.4676 7.78027 82.9617C9.49543 83.1656 9.4797 84.3499 9.4797 84.3499C9.4797 84.3499 11.7849 83.2911 11.5961 86.0361C13.2798 84.3656 14.4914 87.2439 14.4914 87.2439C14.4914 87.2439 16.3167 84.4754 17.4969 86.538C18.0476 83.8401 19.7549 85.0009 19.7549 85.0009C19.7549 85.0009 20.6833 82.4755 22.3906 82.7343Z" fill="#131212"/>
<path d="M82.5461 108.173C81.4211 106.337 77.6524 104.879 77.6524 104.879C76.2205 105.067 73.4275 105.828 73.4275 105.828C73.5849 105.569 74.0097 104.832 73.994 104.361C73.4668 105.247 73.2938 105.075 73.2938 105.075C73.2938 105.075 73.0735 104.988 73.6793 104.157C73.2387 104.33 72.7194 105.012 72.5463 105.255C72.2316 104.675 71.8461 103.365 71.2482 101.789C71.2482 101.789 67.3773 100.471 65.2451 100.157C67.1491 101.365 66.4489 102.745 66.4489 102.745C66.4489 102.745 69.7612 102.808 67.9752 105.93C70.9099 104.918 70.6895 108.996 70.6895 108.996C70.6895 108.996 74.4188 106.777 74.6313 109.867C76.8185 107.004 78.1638 109.341 78.1638 109.341C78.1638 109.341 80.6894 106.902 82.5461 108.173Z" fill="#131212"/>
<path d="M2.86173 246.384C-6.22544 242.126 -24.6201 246.133 -24.6201 246.133C-29.6869 250.533 -38.5695 260.651 -38.5695 260.651C-38.6167 259.254 -38.8685 255.286 -40.1509 253.49C-39.9306 258.266 -41.0242 258.047 -41.0242 258.047C-41.0242 258.047 -42.1178 258.274 -41.8975 253.49C-43.1721 255.286 -43.4239 259.254 -43.4789 260.651C-46.2011 259.215 -51.0555 255.098 -57.4283 250.533C-57.4283 250.533 -75.823 255.325 -84.9102 259.584C-74.3911 259.396 -73.5571 266.548 -73.5571 266.548C-73.5571 266.548 -60.5439 258.306 -59.4346 274.987C-50.6621 263.545 -41.0242 279.928 -41.0242 279.928C-41.0242 279.928 -32.2753 261.78 -23.495 273.223C-22.3857 256.533 -11.1427 262.141 -11.1427 262.141C-11.1427 262.141 -7.65736 246.196 2.86173 246.384Z" fill="#131212"/>
<path d="M127.445 239.136C120.341 239.011 111.199 242.799 111.199 242.799C108.413 247.591 106.47 251.645 105.133 253.363C104.692 252.477 103.378 249.983 102.033 249.198C103.567 252.218 102.796 252.391 102.796 252.391C102.796 252.391 102.151 252.853 100.908 249.7C100.601 251.23 101.592 253.865 101.97 254.783C99.7983 254.641 95.4632 253.387 90.0188 252.281C90.0188 252.281 81.1047 256.579 76.4785 261.951C83.2133 258.79 82.8671 267.229 82.8671 267.229C82.8671 267.229 87.8001 260.327 93.3704 270.79C95.7071 260.861 109.161 266.531 109.161 266.531C109.161 266.531 113.85 252.743 122.843 257.598C118.704 246.501 127.154 247.41 127.154 247.41C127.154 247.41 120.6 242.054 127.445 239.136Z" fill="#131212"/>
<path d="M100.352 260.336C93.4437 253.662 80.8947 248.964 80.8947 248.964C73.6958 251.129 68.0075 253.348 65.0886 253.811C65.4819 252.525 66.489 248.854 65.8911 246.831C64.6008 251.231 63.6803 250.69 63.6803 250.69C63.6803 250.69 62.6181 250.556 64.3097 246.29C62.5945 247.521 61.1232 251.043 60.6433 252.29C58.6292 250.141 55.5057 244.909 51.1549 238.792C51.1549 238.792 38.362 234.816 28.7949 235.851C38.3856 238.941 30.2111 246.964 30.2111 246.964C30.2111 246.964 41.4934 244.698 37.2842 260.172C48.8103 252.517 56.8432 270.532 56.8432 270.532C56.8432 270.532 74.2859 261.23 78.6682 274.328C84.8837 259.544 92.3894 268.234 92.3894 268.234C92.3894 268.234 90.871 256.909 100.352 260.336Z" fill="#131212"/>
<path d="M181.119 256.246C175.604 247.886 163.897 240.27 163.897 240.27C156.069 240.843 149.774 241.815 146.698 241.627C147.391 240.412 149.255 236.89 149.106 234.702C146.793 238.89 145.974 238.129 145.974 238.129C145.974 238.129 144.92 237.753 147.619 233.792C145.589 234.655 143.291 237.91 142.52 239.078C140.955 236.435 138.964 230.396 135.927 223.189C135.927 223.189 123.803 216.24 113.827 215.142C122.891 220.459 112.733 226.773 112.733 226.773C112.733 226.773 124.739 227.016 116.935 241.823C130.412 236.639 134.495 256.803 134.495 256.803C134.495 256.803 154.369 251.282 155.856 265.611C165.549 251.956 171.214 262.513 171.214 262.513C171.214 262.513 172.252 250.615 181.119 256.246Z" fill="#131212"/>
<path d="M6.80315 98.1735C3.67968 98.1422 -0.332843 99.844 -0.332843 99.844C-1.54447 101.962 -2.37844 103.758 -2.96065 104.511C-3.15734 104.118 -3.74742 103.028 -4.33749 102.691C-3.653 104.016 -3.99131 104.095 -3.99131 104.095C-3.99131 104.095 -4.27455 104.299 -4.83316 102.918C-4.95904 103.593 -4.51844 104.746 -4.34536 105.154C-5.30521 105.099 -7.21706 104.565 -9.60884 104.095C-9.60884 104.095 -13.5112 106.016 -15.5332 108.401C-12.5828 106.989 -12.7008 110.699 -12.7008 110.699C-12.7008 110.699 -10.553 107.648 -8.06678 112.228C-7.07545 107.852 -1.13534 110.299 -1.13534 110.299C-1.13534 110.299 0.878777 104.213 4.85196 106.314C2.98732 101.444 6.70874 101.813 6.70874 101.813C6.70874 101.813 3.7977 99.4833 6.80315 98.1735Z" fill="#131212"/>
<path d="M25.262 141.413C20.5099 136.825 11.8869 133.594 11.8869 133.594C6.93816 135.084 3.02792 136.605 1.02166 136.927C1.28916 136.041 1.9894 133.515 1.57241 132.127C0.683361 135.154 0.0539284 134.778 0.0539284 134.778C0.0539284 134.778 -0.677752 134.684 0.486666 131.751C-0.693487 132.598 -1.70056 135.013 -2.031 135.876C-3.41572 134.401 -5.56359 130.802 -8.55331 126.598C-8.55331 126.598 -17.3494 123.861 -23.9268 124.574C-17.3336 126.7 -22.959 132.213 -22.959 132.213C-22.959 132.213 -15.2015 130.653 -18.0968 141.295C-10.1741 136.033 -4.65093 148.417 -4.65093 148.417C-4.65093 148.417 7.33943 142.025 10.3527 151.028C14.6249 140.864 19.7861 146.84 19.7861 146.84C19.7861 146.84 18.7476 139.052 25.262 141.413Z" fill="#131212"/>
<path d="M61.5622 200.097C55.1422 193.886 43.4744 189.525 43.4744 189.525C36.779 191.541 31.4919 193.603 28.7776 194.027C29.1395 192.835 30.0836 189.415 29.525 187.533C28.3291 191.627 27.4715 191.125 27.4715 191.125C27.4715 191.125 26.4802 191 28.0616 187.031C26.4645 188.176 25.1034 191.447 24.6549 192.615C22.7824 190.615 19.8792 185.753 15.8352 180.067C15.8352 180.067 3.93931 176.365 -4.95117 177.337C3.96291 180.216 -3.63727 187.666 -3.63727 187.666C-3.63727 187.666 6.85035 185.557 2.94011 199.948C13.6559 192.835 21.1302 209.579 21.1302 209.579C21.1302 209.579 37.3455 200.936 41.421 213.109C47.1958 199.36 54.1745 207.446 54.1745 207.446C54.1745 207.446 52.7504 196.905 61.5622 200.097Z" fill="#131212"/>
<path d="M25.2618 157.363C16.8198 153.402 -0.284546 157.136 -0.284546 157.136C-4.98942 161.23 -13.2584 170.633 -13.2584 170.633C-13.3056 169.331 -13.5416 165.645 -14.7296 163.975C-14.5251 168.421 -15.54 168.21 -15.54 168.21C-15.54 168.21 -16.5549 168.421 -16.3504 163.975C-17.5384 165.645 -17.7744 169.331 -17.8216 170.633C-20.3471 169.292 -24.8711 165.472 -30.7954 161.23C-30.7954 161.23 -47.8998 165.684 -56.3418 169.645C-46.5623 169.472 -45.7912 176.123 -45.7912 176.123C-45.7912 176.123 -33.6907 168.453 -32.6601 183.974C-24.5013 173.331 -15.5478 188.57 -15.5478 188.57C-15.5478 188.57 -7.41267 171.7 0.74612 182.342C1.77679 166.829 12.2329 172.037 12.2329 172.037C12.2329 172.037 15.4823 157.19 25.2618 157.363Z" fill="#131212"/>
<path d="M208.39 259.278C199.303 255.02 180.908 259.027 180.908 259.027C175.841 263.427 166.959 273.545 166.959 273.545C166.912 272.149 166.66 268.18 165.377 266.384C165.598 271.16 164.504 270.941 164.504 270.941C164.504 270.941 163.41 271.168 163.631 266.384C162.356 268.18 162.104 272.149 162.049 273.545C159.327 272.109 154.473 267.992 148.1 263.427C148.1 263.427 129.705 268.219 120.618 272.478C131.137 272.29 131.971 279.442 131.971 279.442C131.971 279.442 144.984 271.2 146.094 287.881C154.866 276.439 164.504 292.822 164.504 292.822C164.504 292.822 173.253 274.674 182.033 286.117C183.143 269.427 194.386 275.035 194.386 275.035C194.386 275.035 197.879 259.09 208.39 259.278Z" fill="#131212"/>
<path d="M198.152 92.4494C193.031 91.5867 184.415 96.1356 184.415 96.1356C182.504 99.0296 179.482 105.312 179.482 105.312C179.262 104.622 178.585 102.676 177.696 101.963C178.475 104.316 177.901 104.355 177.901 104.355C177.901 104.355 177.39 104.622 176.831 102.206C176.445 103.28 176.87 105.288 177.043 105.994C175.486 105.657 172.488 104.276 168.672 102.88C168.672 102.88 160.167 107.821 156.233 111.21C161.45 109.657 162.866 113.107 162.866 113.107C162.866 113.107 168.2 107.194 171.088 115.358C173.865 108.433 180.962 115.272 180.962 115.272C180.962 115.272 182.795 105.006 188.766 109.5C186.988 101.022 193.377 102.261 193.377 102.261C193.377 102.261 192.881 93.8141 198.152 92.4494Z" fill="#131212"/>
<path d="M207.879 80.2859C206.187 78.2938 201.388 77.2429 201.388 77.2429C199.704 77.737 196.494 79.1722 196.494 79.1722C196.636 78.835 197.006 77.8625 196.903 77.3056C196.431 78.4664 196.203 78.2938 196.203 78.2938C196.203 78.2938 195.92 78.2311 196.494 77.1174C195.999 77.4076 195.503 78.3174 195.338 78.6468C194.85 78.0115 194.142 76.5057 193.135 74.7332C193.135 74.7332 188.249 73.8783 185.629 73.9018C188.147 74.9998 187.564 76.788 187.564 76.788C187.564 76.788 191.553 76.2469 189.995 80.3251C193.323 78.5605 193.827 83.4936 193.827 83.4936C193.827 83.4936 197.887 80.1369 198.721 83.8073C200.806 79.9644 202.859 82.5211 202.859 82.5211C202.859 82.5211 205.408 79.0938 207.879 80.2859Z" fill="#131212"/>
<path d="M165.132 278.462C158.492 273.576 143.016 273.858 143.016 273.858C138.225 276.596 129.429 283.333 129.429 283.333C129.618 282.195 130.05 278.956 129.311 277.302C128.721 281.192 127.871 280.839 127.871 280.839C127.871 280.839 126.95 280.846 127.902 277.027C126.581 278.266 125.739 281.427 125.471 282.548C123.512 280.956 120.255 276.862 115.857 272.157C115.857 272.157 100.255 273.074 92.2383 275.051C100.751 276.588 100.271 282.486 100.271 282.486C100.271 282.486 112.096 277.921 110.295 291.552C119.217 283.733 124.338 298.485 124.338 298.485C124.338 298.485 134.323 285.254 139.547 295.889C143.134 282.611 151.293 288.932 151.293 288.932C151.293 288.932 156.682 276.627 165.132 278.462Z" fill="#131212"/>
<path d="M78.0551 273.629C68.9679 269.37 50.5733 273.378 50.5733 273.378C45.5065 277.778 36.6239 287.895 36.6239 287.895C36.5767 286.499 36.3249 282.531 35.0424 280.735C35.2627 285.519 34.1691 285.291 34.1691 285.291C34.1691 285.291 33.0755 285.519 33.2958 280.735C32.0213 282.531 31.7695 286.499 31.7144 287.895C28.9922 286.46 24.1378 282.342 17.765 277.778C17.765 277.778 -0.629621 282.57 -9.7168 286.829C0.802298 286.64 1.63627 293.793 1.63627 293.793C1.63627 293.793 14.6494 285.55 15.7588 302.232C24.5312 290.789 34.1691 307.173 34.1691 307.173C34.1691 307.173 42.918 289.025 51.6983 300.467C52.8077 283.778 64.0506 289.385 64.0506 289.385C64.0506 289.385 67.536 273.441 78.0551 273.629Z" fill="#131212"/>
<path d="M12.8633 232.221C5.75882 232.096 -3.38343 235.884 -3.38343 235.884C-6.16859 240.676 -8.1119 244.731 -9.44941 246.448C-9.89 245.562 -11.2039 243.068 -12.5493 242.284C-11.0151 245.303 -11.7861 245.476 -11.7861 245.476C-11.7861 245.476 -12.4313 245.938 -13.6744 242.786C-13.9812 244.315 -12.9899 246.95 -12.6122 247.868C-14.7837 247.727 -19.1188 246.472 -24.5632 245.366C-24.5632 245.366 -33.4773 249.664 -38.1035 255.036C-31.3688 251.875 -31.715 260.314 -31.715 260.314C-31.715 260.314 -26.7819 253.413 -21.2116 263.875C-18.8749 253.946 -5.42116 259.616 -5.42116 259.616C-5.42116 259.616 -0.732006 245.829 8.26076 250.683C4.12236 239.586 12.5722 240.496 12.5722 240.496C12.5722 240.496 6.02632 235.139 12.8633 232.221Z" fill="#131212"/>
<path d="M56.7475 241.621C47.6603 237.362 29.2656 241.37 29.2656 241.37C24.1989 245.77 15.3163 255.887 15.3163 255.887C15.269 254.491 15.0173 250.523 13.7348 248.727C13.9551 253.511 12.8615 253.283 12.8615 253.283C12.8615 253.283 11.7679 253.511 11.9882 248.727C10.7136 250.523 10.4619 254.491 10.4068 255.887C7.68459 254.452 2.83023 250.334 -3.5426 245.77C-3.5426 245.77 -21.9372 250.562 -31.0244 254.82C-20.5053 254.632 -19.6714 261.785 -19.6714 261.785C-19.6714 261.785 -6.6582 253.542 -5.54886 270.224C3.22361 258.781 12.8615 275.165 12.8615 275.165C12.8615 275.165 21.6104 257.016 30.3907 268.459C31.5001 251.77 42.743 257.377 42.743 257.377C42.743 257.377 46.2284 241.433 56.7475 241.621Z" fill="#131212"/>
<path d="M86.9976 267.359C80.3573 262.473 64.8816 262.755 64.8816 262.755C60.0901 265.492 51.2941 272.229 51.2941 272.229C51.4829 271.092 51.9156 267.853 51.176 266.198C50.586 270.088 49.7363 269.735 49.7363 269.735C49.7363 269.735 48.8157 269.743 49.7677 265.923C48.4459 267.163 47.6041 270.323 47.3366 271.445C45.3776 269.853 42.1203 265.759 37.7223 261.053C37.7223 261.053 22.1207 261.971 14.1035 263.947C22.6164 265.484 22.1364 271.382 22.1364 271.382C22.1364 271.382 33.9615 266.817 32.1598 280.448C41.0818 272.629 46.2037 287.381 46.2037 287.381C46.2037 287.381 56.1878 274.151 61.4119 284.785C64.9996 271.507 73.1584 277.829 73.1584 277.829C73.1584 277.829 78.5477 265.523 86.9976 267.359Z" fill="#131212"/>
<path d="M240.914 227.979C233.81 227.854 224.667 231.642 224.667 231.642C221.882 236.434 219.939 240.488 218.601 242.206C218.161 241.32 216.847 238.826 215.502 238.041C217.036 241.061 216.265 241.233 216.265 241.233C216.265 241.233 215.62 241.696 214.376 238.543C214.07 240.073 215.061 242.708 215.439 243.625C213.267 243.484 208.932 242.229 203.488 241.124C203.488 241.124 194.573 245.421 189.947 250.794C196.682 247.633 196.336 256.072 196.336 256.072C196.336 256.072 201.269 249.17 206.839 259.633C209.176 249.704 222.63 255.374 222.63 255.374C222.63 255.374 227.319 241.586 236.312 246.441C232.173 235.343 240.623 236.253 240.623 236.253C240.623 236.253 234.069 230.897 240.914 227.979Z" fill="#131212"/>
<path d="M323.549 218.024C316.444 217.899 307.302 221.687 307.302 221.687C304.517 226.479 302.574 230.534 301.236 232.251C300.796 231.365 299.482 228.871 298.136 228.087C299.67 231.106 298.899 231.279 298.899 231.279C298.899 231.279 298.254 231.741 297.011 228.589C296.704 230.118 297.696 232.753 298.073 233.671C295.902 233.53 291.567 232.275 286.122 231.169C286.122 231.169 277.208 235.467 272.582 240.839C279.317 237.678 278.971 246.117 278.971 246.117C278.971 246.117 283.904 239.216 289.474 249.678C291.811 239.749 305.264 245.419 305.264 245.419C305.264 245.419 309.954 231.632 318.946 236.486C314.808 225.389 323.258 226.298 323.258 226.298C323.258 226.298 316.712 220.942 323.549 218.024Z" fill="#131212"/>
<path d="M292.44 246.519C286.924 238.158 275.217 230.543 275.217 230.543C267.389 231.116 261.095 232.088 258.018 231.9C258.711 230.684 260.575 227.163 260.426 224.975C258.113 229.163 257.295 228.402 257.295 228.402C257.295 228.402 256.24 228.025 258.939 224.065C256.909 224.928 254.612 228.182 253.841 229.351C252.275 226.708 250.285 220.669 247.248 213.461C247.248 213.461 235.124 206.513 225.147 205.415C234.211 210.732 224.054 217.045 224.054 217.045C224.054 217.045 236.06 217.289 228.255 232.096C241.732 226.912 245.816 247.076 245.816 247.076C245.816 247.076 265.689 241.554 267.176 255.883C276.869 242.229 282.534 252.785 282.534 252.785C282.534 252.785 283.573 240.88 292.44 246.519Z" fill="#131212"/>
<path d="M380.204 205.925C371.116 201.666 352.722 205.674 352.722 205.674C347.655 210.074 338.772 220.191 338.772 220.191C338.725 218.795 338.473 214.827 337.191 213.031C337.411 217.815 336.318 217.587 336.318 217.587C336.318 217.587 335.224 217.815 335.444 213.031C334.17 214.827 333.918 218.795 333.863 220.191C331.141 218.756 326.286 214.638 319.913 210.074C319.913 210.074 301.519 214.866 292.432 219.124C302.951 218.936 303.785 226.089 303.785 226.089C303.785 226.089 316.798 217.846 317.907 234.528C326.68 223.085 336.318 239.469 336.318 239.469C336.318 239.469 345.066 221.32 353.847 232.763C354.956 216.074 366.199 221.681 366.199 221.681C366.199 221.681 369.684 205.737 380.204 205.925Z" fill="#131212"/>
<path d="M197.651 188.659C190.688 187.263 181.011 189.349 181.011 189.349C177.408 193.561 174.764 197.208 173.135 198.651C172.868 197.694 172.018 195.012 170.838 193.992C171.806 197.239 171.011 197.271 171.011 197.271C171.011 197.271 170.295 197.608 169.642 194.29C169.068 195.741 169.571 198.51 169.768 199.482C167.652 198.949 163.615 196.949 158.462 194.878C158.462 194.878 148.919 197.506 143.396 201.961C150.594 200.063 148.73 208.298 148.73 208.298C148.73 208.298 154.827 202.4 158.415 213.678C162.506 204.337 174.717 212.321 174.717 212.321C174.717 212.321 181.821 199.6 189.791 205.984C187.722 194.329 195.873 196.737 195.873 196.737C195.873 196.737 190.389 190.306 197.651 188.659Z" fill="#131212"/>
<path d="M96.6605 272.119C90.4844 272.009 82.5302 275.303 82.5302 275.303C80.1069 279.468 78.4154 282.997 77.2588 284.495C76.8733 283.719 75.7325 281.554 74.5602 280.872C75.8977 283.499 75.2211 283.648 75.2211 283.648C75.2211 283.648 74.6625 284.048 73.5767 281.311C73.3092 282.636 74.1747 284.934 74.5051 285.727C72.6169 285.601 68.8483 284.519 64.1119 283.554C64.1119 283.554 56.3622 287.287 52.334 291.962C58.1954 289.217 57.8886 296.55 57.8886 296.55C57.8886 296.55 62.1765 290.55 67.023 299.64C69.0528 291.005 80.7599 295.938 80.7599 295.938C80.7599 295.938 84.8354 283.946 92.6637 288.166C89.0603 278.519 96.4087 279.303 96.4087 279.303C96.4087 279.303 90.7047 274.66 96.6605 272.119Z" fill="#131212"/>
<path d="M252.591 148.221C249.357 141.79 237.17 135.9 237.17 135.9C232.347 136.143 222.803 137.924 222.803 137.924C223.401 137.108 225.03 134.755 225.109 133.179C223.102 135.979 222.583 135.367 222.583 135.367C222.583 135.367 221.867 135.006 224.125 132.402C222.599 132.849 220.687 134.983 220.034 135.751C219.137 133.736 218.224 129.257 216.659 123.846C216.659 123.846 204.118 118.403 197.084 116.779C203.111 121.336 200.396 125.752 200.396 125.752C200.396 125.752 211.435 126.857 204.613 136.786C214.684 134.206 212.811 147.743 212.811 147.743C212.811 147.743 225.856 141.367 225.707 151.727C233.779 142.786 237.634 150.943 237.634 150.943C237.634 150.943 246.729 143.453 252.591 148.221Z" fill="#131212"/>
<path d="M342.07 45.9075C339.347 42.8958 331.85 41.5155 331.85 41.5155C329.269 42.3625 324.352 44.7546 324.352 44.7546C324.556 44.2212 325.083 42.6997 324.887 41.837C324.218 43.6566 323.84 43.3978 323.84 43.3978C323.84 43.3978 323.4 43.3115 324.234 41.5625C323.47 42.0331 322.754 43.4762 322.518 43.986C321.732 43.0213 320.567 40.7312 318.907 38.0254C318.907 38.0254 311.283 36.9353 307.224 37.1C311.181 38.6764 310.363 41.4763 310.363 41.4763C310.363 41.4763 316.523 40.4332 314.305 46.8408C319.387 43.9389 320.402 51.57 320.402 51.57C320.402 51.57 326.531 46.1663 328.002 51.8131C331.047 45.7584 334.359 49.6093 334.359 49.6093C334.359 49.6093 338.175 44.1899 342.07 45.9075Z" fill="#131212"/>
<path d="M178.626 47.9529C177.297 48.1176 175.503 49.8744 175.503 49.8744C175.243 50.7293 174.96 52.5096 174.96 52.5096C174.858 52.3527 174.543 51.9214 174.268 51.8116C174.638 52.337 174.496 52.3919 174.496 52.3919C174.496 52.3919 174.386 52.4939 174.071 51.937C174.055 52.2272 174.307 52.6978 174.402 52.8625C173.992 52.8939 173.151 52.7762 172.104 52.7056C172.104 52.7056 170.365 54.5487 169.642 55.6781C170.814 54.9095 171.42 55.6624 171.42 55.6624C171.42 55.6624 172.301 53.8036 173.623 55.6153C173.796 53.7017 176.054 54.8703 176.054 54.8703C176.054 54.8703 175.747 52.1959 177.556 52.8703C176.494 50.9018 178.162 50.7371 178.162 50.7371C178.162 50.7371 177.423 48.6744 178.626 47.9529Z" fill="#131212"/>
<path d="M51.9654 44.4387C50.6357 44.6034 48.8419 46.3602 48.8419 46.3602C48.5823 47.2151 48.299 48.9954 48.299 48.9954C48.1968 48.8386 47.882 48.4072 47.6067 48.2974C47.9765 48.8229 47.8348 48.8778 47.8348 48.8778C47.8348 48.8778 47.7247 48.9797 47.41 48.4229C47.3942 48.7131 47.646 49.1836 47.7404 49.3483C47.3313 49.3797 46.4895 49.2621 45.4431 49.1915C45.4431 49.1915 43.7043 51.0424 42.9805 52.1639C44.1528 51.3953 44.7586 52.1482 44.7586 52.1482C44.7586 52.1482 45.6398 50.2895 46.9615 52.1012C47.1346 50.1875 49.3926 51.3561 49.3926 51.3561C49.3926 51.3561 49.0858 48.6817 50.8954 49.3562C49.8332 47.3876 51.5012 47.2229 51.5012 47.2229C51.5012 47.2229 50.7616 45.1603 51.9654 44.4387Z" fill="#131212"/>
<path d="M109.289 30.3685C108.282 29.0666 105.285 28.2745 105.285 28.2745C104.215 28.5412 102.146 29.349 102.146 29.349C102.248 29.1372 102.508 28.5412 102.452 28.1804C102.122 28.8941 101.98 28.7843 101.98 28.7843C101.98 28.7843 101.799 28.7372 102.201 28.0549C101.878 28.2196 101.54 28.7843 101.43 28.9882C101.139 28.5725 100.737 27.6079 100.155 26.4628C100.155 26.4628 97.1024 25.7883 95.4502 25.7256C97.0001 26.4863 96.5831 27.6 96.5831 27.6C96.5831 27.6 99.1087 27.3726 98.0151 29.898C100.163 28.8784 100.336 31.9999 100.336 31.9999C100.336 31.9999 102.987 29.9999 103.404 32.3371C104.828 29.9764 106.048 31.6391 106.048 31.6391C106.048 31.6391 107.763 29.5529 109.289 30.3685Z" fill="#131212"/>
<path d="M271.905 86.702C266.894 88.0745 261.001 95.8154 261.001 95.8154C260.489 99.2427 260.411 106.207 260.411 106.207C259.923 105.674 258.483 104.192 257.374 103.917C259.073 105.721 258.57 106.003 258.57 106.003C258.57 106.003 258.216 106.458 256.689 104.505C256.792 105.642 258.035 107.289 258.483 107.854C256.925 108.199 253.629 108.207 249.577 108.552C249.577 108.552 243.952 116.607 241.812 121.328C245.887 117.728 248.633 120.262 248.633 120.262C248.633 120.262 250.969 112.654 257.035 118.85C256.626 111.399 265.95 114.623 265.95 114.623C265.95 114.623 263.275 104.544 270.591 106.105C265.399 99.1643 271.717 97.6036 271.717 97.6036C271.717 97.6036 267.696 90.1529 271.905 86.702Z" fill="#131212"/>
<path d="M316.469 246.384C307.382 242.126 288.987 246.133 288.987 246.133C283.921 250.533 275.038 260.651 275.038 260.651C274.991 259.254 274.739 255.286 273.457 253.49C273.677 258.266 272.583 258.047 272.583 258.047C272.583 258.047 271.49 258.274 271.71 253.49C270.435 255.286 270.184 259.254 270.129 260.651C267.406 259.215 262.552 255.098 256.179 250.533C256.179 250.533 237.784 255.325 228.697 259.584C239.216 259.396 240.05 266.548 240.05 266.548C240.05 266.548 253.063 258.306 254.173 274.987C262.945 263.545 272.583 279.928 272.583 279.928C272.583 279.928 281.332 261.78 290.112 273.223C291.222 256.533 302.465 262.141 302.465 262.141C302.465 262.141 305.958 246.196 316.469 246.384Z" fill="#131212"/>
<path d="M229.238 213.874C221.567 212.156 208.177 218.336 208.177 218.336C205.053 222.563 199.978 231.802 199.978 231.802C199.703 230.744 198.838 227.748 197.547 226.595C198.531 230.21 197.657 230.226 197.657 230.226C197.657 230.226 196.855 230.587 196.218 226.885C195.549 228.477 196.029 231.551 196.226 232.634C193.897 231.991 189.483 229.669 183.834 227.253C183.834 227.253 170.577 234.03 164.354 238.829C172.363 236.908 174.22 242.241 174.22 242.241C174.22 242.241 182.772 233.732 186.462 246.312C191.23 236.077 201.387 246.978 201.387 246.978C201.387 246.978 204.99 231.614 213.652 238.884C211.662 225.928 221.213 228.312 221.213 228.312C221.213 228.312 221.158 215.513 229.238 213.874Z" fill="#131212"/>
<path d="M320.41 98.1735C317.286 98.1422 313.274 99.844 313.274 99.844C312.062 101.962 311.228 103.758 310.646 104.511C310.449 104.118 309.859 103.028 309.269 102.691C309.953 104.016 309.615 104.095 309.615 104.095C309.615 104.095 309.332 104.299 308.773 102.918C308.647 103.593 309.088 104.746 309.261 105.154C308.301 105.099 306.389 104.565 303.998 104.095C303.998 104.095 300.095 106.016 298.073 108.401C301.024 106.989 300.906 110.699 300.906 110.699C300.906 110.699 303.053 107.648 305.54 112.228C306.531 107.852 312.471 110.299 312.471 110.299C312.471 110.299 314.485 104.213 318.458 106.314C316.594 101.444 320.315 101.813 320.315 101.813C320.315 101.813 317.412 99.4833 320.41 98.1735Z" fill="#131212"/>
<path d="M338.867 141.413C334.115 136.825 325.492 133.594 325.492 133.594C320.544 135.084 316.633 136.605 314.627 136.927C314.895 136.041 315.595 133.515 315.178 132.127C314.289 135.154 313.659 134.778 313.659 134.778C313.659 134.778 312.928 134.684 314.092 131.751C312.912 132.598 311.905 135.013 311.574 135.876C310.19 134.401 308.042 130.802 305.052 126.598C305.052 126.598 296.256 123.861 289.679 124.574C296.272 126.7 290.646 132.213 290.646 132.213C290.646 132.213 298.404 130.653 295.509 141.295C303.431 136.033 308.955 148.417 308.955 148.417C308.955 148.417 320.945 142.025 323.958 151.028C328.23 140.864 333.392 146.84 333.392 146.84C333.392 146.84 332.353 139.052 338.867 141.413Z" fill="#131212"/>
<path d="M246.446 305.658C241.937 298.826 232.37 292.599 232.37 292.599C225.974 293.07 220.828 293.862 218.319 293.705C218.885 292.709 220.411 289.839 220.286 288.043C218.397 291.47 217.729 290.842 217.729 290.842C217.729 290.842 216.871 290.537 219.074 287.297C217.414 288.003 215.541 290.662 214.904 291.611C213.622 289.454 212.001 284.521 209.523 278.623C209.523 278.623 199.617 272.945 191.466 272.043C198.87 276.388 190.577 281.549 190.577 281.549C190.577 281.549 200.388 281.745 194.007 293.846C205.022 289.611 208.358 306.081 208.358 306.081C208.358 306.081 224.597 301.564 225.809 313.273C233.731 302.12 238.358 310.74 238.358 310.74C238.358 310.74 239.199 301.054 246.446 305.658Z" fill="#131212"/>
<path d="M234.377 158.924C226.603 158.297 214.314 166.21 214.314 166.21C211.836 170.791 208.138 180.563 208.138 180.563C207.721 179.559 206.454 176.743 205.03 175.779C206.501 179.198 205.644 179.331 205.644 179.331C205.644 179.331 204.912 179.794 203.763 176.257C203.323 177.912 204.228 180.869 204.574 181.896C202.206 181.59 197.54 179.92 191.655 178.328C191.655 178.328 179.578 186.813 174.134 192.382C181.734 189.386 184.299 194.366 184.299 194.366C184.299 194.366 191.514 184.829 196.879 196.672C200.136 185.959 211.623 195.268 211.623 195.268C211.623 195.268 213.032 179.684 222.544 185.629C218.783 173.183 228.499 174.21 228.499 174.21C228.499 174.21 226.674 161.646 234.377 158.924Z" fill="#131212"/>
<path d="M303.699 206.954C295.949 206.821 285.98 210.954 285.98 210.954C282.944 216.178 280.827 220.609 279.364 222.475C278.884 221.503 277.452 218.789 275.981 217.926C277.656 221.22 276.815 221.409 276.815 221.409C276.815 221.409 276.114 221.911 274.753 218.475C274.423 220.138 275.501 223.016 275.91 224.02C273.542 223.864 268.813 222.499 262.873 221.291C262.873 221.291 253.157 225.973 248.105 231.84C255.454 228.397 255.076 237.596 255.076 237.596C255.076 237.596 260.458 230.075 266.532 241.479C269.081 230.655 283.754 236.836 283.754 236.836C283.754 236.836 288.868 221.801 298.679 227.087C294.163 214.985 303.376 215.974 303.376 215.974C303.376 215.974 296.232 210.139 303.699 206.954Z" fill="#131212"/>
<path d="M375.167 200.097C368.747 193.886 357.079 189.525 357.079 189.525C350.384 191.541 345.096 193.603 342.382 194.027C342.744 192.835 343.688 189.415 343.13 187.533C341.934 191.627 341.076 191.125 341.076 191.125C341.076 191.125 340.085 191 341.666 187.031C340.069 188.176 338.708 191.447 338.259 192.615C336.387 190.615 333.484 185.753 329.44 180.067C329.44 180.067 317.544 176.365 308.653 177.337C317.567 180.216 309.967 187.666 309.967 187.666C309.967 187.666 320.455 185.557 316.545 199.948C327.26 192.835 334.735 209.579 334.735 209.579C334.735 209.579 350.95 200.936 355.025 213.109C360.8 199.36 367.779 207.446 367.779 207.446C367.779 207.446 366.355 196.905 375.167 200.097Z" fill="#131212"/>
<path d="M189.845 138.048C184.928 133.287 175.982 129.946 175.982 129.946C170.852 131.491 166.8 133.067 164.723 133.397C164.999 132.479 165.723 129.86 165.298 128.424C164.377 131.562 163.724 131.177 163.724 131.177C163.724 131.177 162.969 131.083 164.173 128.04C162.945 128.919 161.907 131.42 161.561 132.314C160.121 130.785 157.902 127.052 154.802 122.699C154.802 122.699 145.684 119.86 138.87 120.605C145.707 122.809 139.877 128.519 139.877 128.519C139.877 128.519 147.918 126.903 144.92 137.93C153.134 132.479 158.862 145.31 158.862 145.31C158.862 145.31 171.285 138.683 174.408 148.016C178.838 137.483 184.18 143.679 184.18 143.679C184.18 143.679 183.087 135.601 189.845 138.048Z" fill="#131212"/>
<path d="M94.5126 73.9987C91.2711 72.6655 86.3853 72.7674 86.3853 72.7674C84.2374 74.4693 82.6167 75.9908 81.6883 76.5398C81.6489 76.0536 81.4916 74.6732 81.0117 74.0693C81.169 75.732 80.7835 75.6771 80.7835 75.6771C80.7835 75.6771 80.4058 75.7712 80.398 74.1007C79.981 74.7517 79.9653 76.1398 79.9731 76.6261C78.9975 76.1712 77.2352 74.8222 74.9299 73.3321C74.9299 73.3321 70.0598 73.7086 66.96 75.3477C70.6263 75.1046 68.9426 78.9162 68.9426 78.9162C68.9426 78.9162 72.4516 76.6261 73.1282 82.4376C75.9921 78.2888 81.1611 83.3082 81.1611 83.3082C81.1611 83.3082 85.8031 77.8104 89.0682 81.6534C89.1704 75.8104 92.8918 77.7398 92.8918 77.7398C92.8918 77.7398 90.8384 74.1164 94.5126 73.9987Z" fill="#131212"/>
<path d="M295.902 210.723C290.772 202.951 279.883 195.868 279.883 195.868C272.606 196.402 266.752 197.312 263.896 197.131C264.541 195.994 266.272 192.731 266.139 190.692C263.983 194.59 263.228 193.884 263.228 193.884C263.228 193.884 262.252 193.531 264.754 189.853C262.866 190.653 260.734 193.68 260.01 194.763C258.554 192.308 256.705 186.692 253.881 179.987C253.881 179.987 242.606 173.524 233.33 172.505C241.757 177.453 232.315 183.32 232.315 183.32C232.315 183.32 243.48 183.547 236.218 197.312C248.751 192.488 252.543 211.233 252.543 211.233C252.543 211.233 271.024 206.096 272.401 219.421C281.41 206.731 286.681 216.542 286.681 216.542C286.681 216.542 287.657 205.484 295.902 210.723Z" fill="#131212"/>
<path d="M300.008 304.582C294.879 296.81 283.99 289.728 283.99 289.728C276.712 290.261 270.859 291.171 268.003 290.991C268.648 289.854 270.379 286.591 270.245 284.552C268.089 288.45 267.334 287.744 267.334 287.744C267.334 287.744 266.358 287.391 268.86 283.713C266.972 284.513 264.84 287.54 264.116 288.622C262.661 286.167 260.812 280.552 257.987 273.846C257.987 273.846 246.713 267.384 237.437 266.364C245.863 271.313 236.422 277.18 236.422 277.18C236.422 277.18 247.586 277.407 240.324 291.171C252.857 286.348 256.65 305.092 256.65 305.092C256.65 305.092 275.131 299.955 276.508 313.28C285.516 300.59 290.788 310.402 290.788 310.402C290.788 310.402 291.763 299.343 300.008 304.582Z" fill="#131212"/>
<path d="M338.869 157.363C330.427 153.402 313.323 157.136 313.323 157.136C308.618 161.23 300.349 170.633 300.349 170.633C300.302 169.331 300.066 165.645 298.878 163.975C299.082 168.421 298.067 168.21 298.067 168.21C298.067 168.21 297.053 168.421 297.257 163.975C296.069 165.645 295.833 169.331 295.786 170.633C293.26 169.292 288.736 165.472 282.812 161.23C282.812 161.23 265.708 165.684 257.266 169.645C267.045 169.472 267.816 176.123 267.816 176.123C267.816 176.123 279.917 168.453 280.947 183.974C289.106 173.331 298.06 188.57 298.06 188.57C298.06 188.57 306.195 171.7 314.354 182.342C315.384 166.829 325.84 172.037 325.84 172.037C325.84 172.037 329.09 157.19 338.869 157.363Z" fill="#131212"/>
<path d="M297.316 271.935C291.565 269.237 279.921 271.778 279.921 271.778C276.719 274.562 271.086 280.97 271.086 280.97C271.054 280.083 270.897 277.574 270.086 276.437C270.228 279.464 269.536 279.323 269.536 279.323C269.536 279.323 268.843 279.464 268.985 276.437C268.175 277.574 268.017 280.083 267.986 280.97C266.263 280.06 263.186 277.456 259.15 274.562C259.15 274.562 247.506 277.597 241.755 280.295C248.411 280.178 248.938 284.703 248.938 284.703C248.938 284.703 257.176 279.48 257.876 290.044C263.43 282.797 269.528 293.173 269.528 293.173C269.528 293.173 275.067 281.683 280.621 288.93C281.321 278.366 288.442 281.911 288.442 281.911C288.442 281.911 290.66 271.817 297.316 271.935Z" fill="#131212"/>
<path d="M252.748 273.428C246.139 270.33 232.748 273.248 232.748 273.248C229.058 276.448 222.591 283.82 222.591 283.82C222.552 282.8 222.371 279.914 221.442 278.604C221.608 282.087 220.805 281.922 220.805 281.922C220.805 281.922 220.01 282.087 220.168 278.604C219.239 279.914 219.051 282.8 219.019 283.82C217.036 282.777 213.504 279.781 208.862 276.456C208.862 276.456 195.471 279.946 188.862 283.043C196.518 282.91 197.123 288.118 197.123 288.118C197.123 288.118 206.596 282.118 207.399 294.267C213.787 285.937 220.797 297.866 220.797 297.866C220.797 297.866 227.17 284.659 233.559 292.988C234.361 280.84 242.551 284.918 242.551 284.918C242.551 284.918 245.093 273.295 252.748 273.428Z" fill="#131212"/>
<path d="M273.211 267.045C266.571 262.159 251.095 262.441 251.095 262.441C246.304 265.178 237.508 271.915 237.508 271.915C237.697 270.778 238.129 267.539 237.39 265.884C236.8 269.774 235.95 269.421 235.95 269.421C235.95 269.421 235.03 269.429 235.982 265.609C234.66 266.849 233.818 270.009 233.55 271.131C231.591 269.539 228.334 265.445 223.936 260.739C223.936 260.739 208.335 261.657 200.317 263.633C208.83 265.17 208.35 271.068 208.35 271.068C208.35 271.068 220.175 266.503 218.374 280.134C227.296 272.315 232.418 287.067 232.418 287.067C232.418 287.067 242.402 273.837 247.626 284.471C251.213 271.194 259.372 277.515 259.372 277.515C259.372 277.515 264.762 265.209 273.211 267.045Z" fill="#131212"/>
<path d="M219.743 281.141C213.102 276.255 197.627 276.538 197.627 276.538C192.835 279.275 184.039 286.012 184.039 286.012C184.228 284.875 184.661 281.635 183.921 279.981C183.331 283.871 182.481 283.518 182.481 283.518C182.481 283.518 181.561 283.526 182.513 279.706C181.191 280.945 180.349 284.106 180.082 285.227C178.123 283.635 174.865 279.541 170.467 274.836C170.467 274.836 154.866 275.753 146.849 277.73C155.361 279.267 154.882 285.165 154.882 285.165C154.882 285.165 166.707 280.6 164.905 294.231C173.827 286.412 178.949 301.164 178.949 301.164C178.949 301.164 188.933 287.933 194.157 298.568C197.745 285.29 205.903 291.612 205.903 291.612C205.903 291.612 211.293 279.306 219.743 281.141Z" fill="#131212"/>
<path d="M213.975 275.874C204.888 271.615 186.493 275.623 186.493 275.623C181.426 280.023 172.544 290.14 172.544 290.14C172.497 288.744 172.245 284.775 170.962 282.979C171.183 287.764 170.089 287.536 170.089 287.536C170.089 287.536 168.995 287.764 169.216 282.979C167.941 284.775 167.689 288.744 167.634 290.14C164.912 288.705 160.058 284.587 153.685 280.023C153.685 280.023 135.29 284.815 126.203 289.073C136.722 288.885 137.556 296.038 137.556 296.038C137.556 296.038 150.569 287.795 151.679 304.477C160.451 293.034 170.089 309.418 170.089 309.418C170.089 309.418 178.838 291.269 187.618 302.712C188.728 286.022 199.971 291.63 199.971 291.63C199.971 291.63 203.456 275.686 213.975 275.874Z" fill="#131212"/>
<path d="M159.65 273.578C149.453 268.802 128.808 273.303 128.808 273.303C123.128 278.244 113.152 289.601 113.152 289.601C113.097 288.032 112.813 283.578 111.382 281.562C111.633 286.926 110.406 286.676 110.406 286.676C110.406 286.676 109.179 286.926 109.43 281.562C107.998 283.578 107.715 288.032 107.66 289.601C104.607 287.985 99.1552 283.374 92.0034 278.244C92.0034 278.244 71.3586 283.625 61.1621 288.401C72.9636 288.189 73.8999 296.22 73.8999 296.22C73.8999 296.22 88.5023 286.966 89.7454 305.694C99.5957 292.848 110.406 311.239 110.406 311.239C110.406 311.239 120.225 290.871 130.075 303.718C131.318 284.989 143.938 291.279 143.938 291.279C143.938 291.279 147.84 273.374 159.65 273.578Z" fill="#131212"/>
<path d="M349.583 305.658C345.075 298.826 335.508 292.599 335.508 292.599C329.112 293.07 323.966 293.862 321.456 293.705C322.023 292.709 323.549 289.839 323.423 288.043C321.535 291.47 320.866 290.842 320.866 290.842C320.866 290.842 320.009 290.537 322.212 287.297C320.552 288.003 318.679 290.662 318.042 291.611C316.767 289.454 315.139 284.521 312.66 278.623C312.66 278.623 302.755 272.945 294.604 272.043C302.007 276.388 293.715 281.549 293.715 281.549C293.715 281.549 303.526 281.745 297.145 293.846C308.16 289.611 311.496 306.081 311.496 306.081C311.496 306.081 327.735 301.564 328.946 313.273C336.869 302.12 341.495 310.74 341.495 310.74C341.495 310.74 342.337 301.054 349.583 305.658Z" fill="#131212"/>
<path d="M269.758 153.74C266.933 152.415 261.221 153.662 261.221 153.662C259.648 155.026 256.886 158.171 256.886 158.171C256.87 157.74 256.792 156.501 256.398 155.944C256.469 157.426 256.131 157.356 256.131 157.356C256.131 157.356 255.792 157.426 255.863 155.944C255.47 156.501 255.391 157.732 255.375 158.171C254.534 157.724 253.023 156.446 251.04 155.026C251.04 155.026 245.328 156.516 242.504 157.834C245.769 157.779 246.029 159.999 246.029 159.999C246.029 159.999 250.073 157.434 250.411 162.618C253.133 159.065 256.131 164.155 256.131 164.155C256.131 164.155 258.845 158.516 261.575 162.077C261.921 156.893 265.415 158.634 265.415 158.634C265.415 158.634 266.492 153.685 269.758 153.74Z" fill="#131212"/>
<path d="M275.587 71.5783C273.211 70.4803 268.412 71.5469 268.412 71.5469C267.098 72.6998 264.785 75.3507 264.785 75.3507C264.769 74.9821 264.698 73.9468 264.36 73.4841C264.423 74.7311 264.14 74.6762 264.14 74.6762C264.14 74.6762 263.857 74.739 263.904 73.492C263.573 73.9625 263.51 74.9978 263.503 75.3664C262.795 74.9978 261.52 73.9311 259.852 72.739C259.852 72.739 255.053 74.0096 252.692 75.1389C255.438 75.0762 255.666 76.9428 255.666 76.9428C255.666 76.9428 259.05 74.7782 259.364 79.131C261.638 76.135 264.179 80.4015 264.179 80.4015C264.179 80.4015 266.437 75.6566 268.742 78.629C269.01 74.2684 271.953 75.7193 271.953 75.7193C271.953 75.7193 272.842 71.5469 275.587 71.5783Z" fill="#131212"/>
<path d="M392.384 272.907C383.297 268.649 364.902 272.656 364.902 272.656C359.836 277.056 350.953 287.174 350.953 287.174C350.906 285.778 350.654 281.809 349.372 280.013C349.592 284.789 348.498 284.57 348.498 284.57C348.498 284.57 347.405 284.797 347.625 280.013C346.35 281.809 346.099 285.778 346.044 287.174C343.321 285.738 338.467 281.621 332.094 277.056C332.094 277.056 313.699 281.848 304.612 286.107C315.131 285.919 315.965 293.071 315.965 293.071C315.965 293.071 328.979 284.829 330.088 301.51C338.86 290.068 348.498 306.451 348.498 306.451C348.498 306.451 357.247 288.303 366.027 299.746C367.137 283.056 378.38 288.664 378.38 288.664C378.38 288.664 381.865 272.727 392.384 272.907Z" fill="#131212"/>
<path d="M326.476 232.221C319.371 232.096 310.229 235.884 310.229 235.884C307.444 240.676 305.5 244.731 304.163 246.448C303.722 245.562 302.408 243.068 301.063 242.284C302.597 245.303 301.826 245.476 301.826 245.476C301.826 245.476 301.181 245.938 299.938 242.786C299.631 244.315 300.622 246.95 301 247.868C298.829 247.727 294.494 246.472 289.049 245.366C289.049 245.366 280.135 249.664 275.509 255.036C282.244 251.875 281.897 260.314 281.897 260.314C281.897 260.314 286.83 253.413 292.401 263.875C294.737 253.946 308.191 259.616 308.191 259.616C308.191 259.616 312.88 245.829 321.873 250.683C317.735 239.586 326.185 240.496 326.185 240.496C326.185 240.496 319.631 235.139 326.476 232.221Z" fill="#131212"/>
<path d="M370.354 241.621C361.267 237.362 342.872 241.37 342.872 241.37C337.805 245.77 328.923 255.887 328.923 255.887C328.875 254.491 328.624 250.523 327.341 248.727C327.562 253.511 326.468 253.283 326.468 253.283C326.468 253.283 325.374 253.511 325.595 248.727C324.32 250.523 324.068 254.491 324.013 255.887C321.291 254.452 316.437 250.334 310.064 245.77C310.064 245.77 291.669 250.562 282.582 254.82C293.101 254.632 293.935 261.785 293.935 261.785C293.935 261.785 306.948 253.542 308.058 270.224C316.83 258.781 326.468 275.165 326.468 275.165C326.468 275.165 335.217 257.016 343.997 268.459C345.107 251.77 356.349 257.377 356.349 257.377C356.349 257.377 359.843 241.433 370.354 241.621Z" fill="#131212"/>
</svg>
