<svg width="583" height="152" viewBox="0 0 583 152" fill="none" xmlns="http://www.w3.org/2000/svg">
<path d="M125.524 61.3792C121.735 60.2475 118.497 60.9449 115.3 63.103C111.905 58.971 108.312 56.2339 104.536 55.0891C100.746 53.9574 97.0875 54.5233 93.2581 56.4971C90.4947 52.5494 87.3365 49.9439 83.5467 48.799C79.77 47.6805 75.6775 48.1147 71.2034 49.8912C69.0716 46.1409 66.3345 43.6538 62.5578 42.5221C58.7812 41.4036 54.2676 41.7062 49.1618 43.2985C47.6748 39.7324 45.3457 37.3769 41.569 36.2452C30.66 32.6527 10.5923 45.2066 2.61787 70.2748C-4.50123 95.593 5.35498 117.108 16.4481 120.109C20.238 121.24 23.4751 120.543 26.6728 118.385C30.0679 122.517 33.6603 125.254 37.437 126.399C41.2268 127.53 44.8851 126.964 48.7144 124.991C51.4778 128.925 54.6492 131.544 58.4259 132.689C62.2025 133.82 66.295 133.373 70.7691 131.596C72.9009 135.347 75.638 137.834 79.4147 138.966C83.1914 140.084 87.705 139.781 92.8107 138.189C94.2977 141.742 96.6269 144.111 100.404 145.242C111.313 148.835 129.683 135.781 137.657 110.713C144.776 85.3815 136.604 64.3795 125.524 61.3792Z" fill="#070E14"/>
<path d="M68.8904 52.3967C67.7982 48.0805 76.9701 49.5807 81.0889 38.9349C83.6813 32.2238 90.5241 12.9588 103.196 14.1036L103.96 17.775C103.96 17.775 96.3536 16.1564 91.8926 29.684C84.0629 53.4758 97.1958 54.2917 95.9193 59.8843C94.6692 65.3454 69.9958 56.6998 68.8904 52.3967Z" fill="#070E14"/>
<path d="M63.7452 57.1641L41.4141 70.5338L63.982 73.8104L63.7452 57.1641Z" fill="#FA4A00"/>
<path d="M93.8015 66.1719L105.105 89.6215L84.4453 79.9364L93.8015 66.1719Z" fill="#FA4A00"/>
<path d="M75.3691 97.9472L72.4873 82.6562L61.6836 93.8415L75.3691 97.9472Z" fill="#FA4A00"/>
<path d="M88.2369 111.765L83.7365 116.989L85.0393 111.633C82.4206 111.462 79.2887 111.081 75.6173 110.37L71.2485 115.489L72.6302 109.752C70.2878 109.225 67.7876 108.567 65.0637 107.764C62.2739 106.935 59.7737 106.08 57.484 105.225L55.4838 110.778L54.6548 104.133C51.1544 102.698 48.3384 101.316 46.0618 100.04L44.2327 105.185L43.3642 98.4215C39.5217 95.9607 38.0742 94.25 38.0742 94.25C38.4953 98.8557 40.8113 105.014 45.9302 110.33L49.4043 105.646L47.8252 112.146C50.4833 114.476 53.7599 116.568 57.7603 118.187L64.1294 111.37L65.34 120.437C69.5246 121.226 73.4329 121.226 76.9727 120.687L79.1703 114.568L79.4335 120.213C86.9079 118.476 92.4347 114.476 94.8955 111.278C94.8823 111.252 92.6716 111.804 88.2369 111.765Z" fill="#FA4A00"/>
<path d="M547.734 31.9435C543.852 32.7199 541.325 34.8385 539.496 38.2336C534.561 36.1676 530.114 35.4175 526.245 36.1676C522.376 36.944 519.402 39.1415 516.928 42.6682C512.651 40.4706 508.625 39.6416 504.756 40.3917C500.887 41.1681 497.479 43.4577 494.347 47.116C490.715 44.7868 487.136 43.8788 483.254 44.6289C479.385 45.3921 475.543 47.7739 471.766 51.5638C468.779 49.1162 465.634 48.1029 461.752 48.8661C450.435 50.7874 438.539 71.2499 443.184 97.1339C448.698 122.86 467.463 137.283 478.674 134.756C482.556 133.98 485.083 131.861 486.912 128.466C491.847 130.532 496.295 131.282 500.163 130.532C504.032 129.756 507.006 127.558 509.48 124.031C513.757 126.229 517.783 127.058 521.652 126.308C525.521 125.545 528.929 123.242 532.061 119.583C535.693 121.913 539.272 122.821 543.154 122.071C547.023 121.307 550.866 118.926 554.642 115.136C557.629 117.583 560.774 118.597 564.656 117.833C575.973 115.912 586.145 95.7917 581.487 69.9076C575.973 44.1815 558.932 29.4169 547.734 31.9435Z" fill="#070E14"/>
<path d="M493.454 50.4176C490.467 47.1147 499.283 44.1539 497.954 32.8107C497.125 25.6652 494.178 5.43962 505.916 0.53125L508.297 3.42626C508.297 3.42626 500.81 5.5449 503.192 19.5989C507.376 44.2855 519.364 38.8902 520.851 44.4302C522.299 49.8386 496.441 53.7206 493.454 50.4176Z" fill="#070E14"/>
<path d="M491.118 57.0547L477.617 79.2937L499.106 71.6614L491.118 57.0547Z" fill="#FA4A00"/>
<path d="M521.913 50.9922L542.849 66.4542L520.07 67.5333L521.913 50.9922Z" fill="#FA4A00"/>
<path d="M520.438 87.7035L510.753 75.5312L506.41 90.4669L520.438 87.7035Z" fill="#FA4A00"/>
<path d="M538.265 93.9099L536.725 100.634L535.383 95.2916C532.988 96.3575 530.04 97.476 526.461 98.5682L524.987 105.135L523.526 99.4104C521.21 100.029 518.684 100.634 515.907 101.174C513.052 101.74 510.433 102.161 508.025 102.463L508.841 108.306L504.998 102.805C501.235 103.174 498.09 103.253 495.484 103.187L496.261 108.595L492.339 103.016C487.799 102.634 485.707 101.805 485.707 101.805C488.234 105.687 493.155 110.056 500.156 112.359L501.051 106.595L502.695 113.083C506.13 113.899 510.012 114.228 514.302 113.793L516.749 104.793L522.053 112.241C526.119 110.99 529.58 109.161 532.448 107.03L531.527 100.595L534.409 105.464C540.212 100.437 543.226 94.3178 543.91 90.3438C543.897 90.3569 542.212 91.8834 538.265 93.9099Z" fill="#FA4A00"/>
<path d="M327.579 50.4409C324.263 49.3882 321.118 50.4672 318.328 53.428C315.552 49.3355 312.354 46.6248 308.959 46.1116C305.551 45.5852 302.327 47.3354 299.498 50.8752C296.669 46.9538 293.431 44.6641 289.997 44.6641C286.562 44.6641 283.325 46.9538 280.496 50.8752C277.667 47.3354 274.443 45.5852 271.034 46.1116C267.626 46.6379 264.442 49.3487 261.665 53.428C258.889 50.4804 255.73 49.3882 252.427 50.4409C241.597 54.6782 233.32 75.8249 233.32 95.1821C233.32 114.552 241.597 135.699 252.427 139.936C255.744 140.989 258.889 139.91 261.665 136.949C264.442 141.042 267.639 143.753 271.034 144.279C274.443 144.805 277.667 143.055 280.496 139.515C283.325 143.437 286.562 145.74 289.997 145.726C293.431 145.726 296.669 143.437 299.498 139.515C302.327 143.055 305.551 144.805 308.959 144.279C312.367 143.753 315.552 141.042 318.328 136.949C321.105 139.897 324.263 140.989 327.579 139.936C338.409 135.699 346.686 114.552 346.686 95.1821C346.673 75.8249 338.396 54.6782 327.579 50.4409Z" fill="#070E14"/>
<path d="M285.301 55.5159C289.143 0.326382 315.712 11.2616 311.711 28.3554C311.303 30.1056 308.106 29.0133 308.303 27.579C309.461 19.2492 298.763 10.4458 295.275 37.5668C294.499 43.7648 295.578 49.7916 295.749 55.8317L285.301 55.5159Z" fill="#070E14"/>
<path d="M295.243 98.6013L289.993 88.4688L284.742 98.6013H295.243Z" fill="#FA4A00"/>
<path d="M312.351 108.081L309.022 103.713C304.535 104.686 299.469 105.515 293.837 105.831L290.06 112.24L286.217 105.923C282.02 105.792 277.572 105.331 272.848 104.449L270.084 108.081C265.071 106.884 260.925 104.068 255.754 99.8438C255.754 99.8438 256.241 101.081 257.254 103.068C261.149 110.792 268.347 115.911 276.677 118.49L279.519 114.595L282.638 119.846C288.547 120.78 294.718 120.543 300.521 119.135L303.693 114.135L306.035 117.398C314.233 114.148 321.05 108.305 324.182 99.8438C317.944 105.923 312.351 108.081 312.351 108.081Z" fill="#FA4A00"/>
<path d="M284.39 80.5726C284.39 80.5726 261.269 76.0063 254.242 69.9531C254.242 69.9531 264.862 100.732 284.39 80.5726Z" fill="#FA4A00"/>
<path d="M295.59 80.5726C295.59 80.5726 318.71 76.0063 325.737 69.9531C325.751 69.9531 315.118 100.732 295.59 80.5726Z" fill="#FA4A00"/>
<path d="M435.477 69.3656C433.687 69.0761 432.069 69.1288 430.595 69.4709C427.674 65.2336 423.923 62.4571 419.581 61.7728C416.238 61.2464 412.856 61.9833 409.606 63.773C406.803 59.4962 403.224 56.746 399.066 56.088C394.552 55.3774 389.946 57.2066 385.657 60.9832C383.288 58.7067 380.577 57.2329 377.564 56.746C373.761 56.1407 369.905 57.1934 366.26 59.5489C364.839 58.1935 363.036 57.2987 360.759 56.9302C348.113 54.9169 335.06 70.9052 331.612 92.6442C328.164 114.37 335.612 133.622 348.258 135.622C349.916 135.885 351.43 135.819 352.811 135.464C355.746 139.714 359.483 142.478 363.839 143.175C366.641 143.623 369.484 143.162 372.234 141.952C375.195 147.32 379.169 150.794 383.906 151.545C389.012 152.36 394.236 149.9 398.987 145.057C401.053 146.715 403.342 147.794 405.856 148.189C409.764 148.807 413.725 147.689 417.449 145.189C418.883 146.689 420.699 147.689 422.989 148.044C435.635 150.058 448.689 134.069 452.137 112.33C455.584 90.6308 448.123 71.379 435.477 69.3656Z" fill="#070E14"/>
<path d="M393.695 59.2298C393.774 59.1245 393.603 59.3614 393.761 59.2035C393.866 59.0982 394.051 58.8482 394.274 58.4797C394.722 57.7428 395.314 56.4664 395.617 54.7031C395.696 54.2688 395.748 53.7951 395.801 53.295C395.827 53.045 395.827 52.795 395.84 52.5318C395.853 52.2028 395.853 51.8738 395.867 51.5317C395.893 49.9263 396.051 48.2156 396.38 46.5049C396.696 44.7811 397.196 43.0046 397.946 41.2544C398.696 39.5042 399.683 37.7672 401.091 36.2013C402.473 34.6617 404.341 33.3063 406.499 32.7009C408.631 32.0693 410.881 32.2667 412.592 32.872C414.697 33.5958 416.092 34.8064 417.171 36.1881C418.224 37.5698 418.842 39.0963 419.066 40.5701C419.303 42.0439 419.145 43.452 418.698 44.5968C418.263 45.7548 417.592 46.597 416.961 47.1629C416.342 47.7419 415.776 48.0445 415.395 48.2551C415.013 48.4393 414.803 48.5314 414.803 48.5314L413.895 46.8076C413.895 46.8076 414.039 46.7023 414.303 46.5181C414.539 46.3075 414.908 46.018 415.237 45.5574C415.566 45.11 415.869 44.5179 415.987 43.7941C416.105 43.0704 416.04 42.2282 415.711 41.3728C415.395 40.5175 414.816 39.649 414.053 38.9779C413.671 38.6357 413.237 38.3594 412.776 38.1357C412.552 38.0304 412.316 37.9383 412.079 37.8725C411.829 37.7935 411.592 37.7541 411.447 37.7409C409.105 37.4251 407.526 38.3989 406.341 40.3333C405.183 42.2808 404.683 44.9521 404.683 47.426C404.67 48.6762 404.789 49.8868 404.973 51.0185L405.052 51.5317L405.065 51.5975C405.065 51.5712 405.078 51.6896 405.065 51.558V51.5975L405.078 51.7554L405.104 52.0581C405.144 52.466 405.196 52.8608 405.21 53.2555C405.249 54.0451 405.262 54.8215 405.236 55.5716C405.144 58.585 404.433 61.151 403.696 62.9275C403.328 63.8224 402.959 64.5198 402.657 65.033C402.394 65.4936 401.972 66.0462 402.051 65.941L393.695 59.2298Z" fill="#070E14"/>
<path d="M388.979 84.7004C377.044 82.0291 368.253 78.1076 358.516 70.5938C358.516 70.5938 367.319 102.084 388.979 84.7004Z" fill="#FA4A00"/>
<path d="M400.125 86.4663C412.297 87.6243 421.864 86.6242 433.457 82.4922C433.457 82.4922 415.324 109.718 400.125 86.4663Z" fill="#FA4A00"/>
<path d="M396.767 109.705L392.754 96.9141L384.977 107.823L396.767 109.705Z" fill="#FA4A00"/>
<path d="M423.15 111.674C419.545 116.991 416.045 122.162 412.649 127.189C411.228 126.439 409.781 125.584 408.32 124.597C406.359 126.742 404.425 128.808 402.543 130.795C401.385 129.545 400.214 128.202 399.03 126.768C396.885 128.623 394.806 130.374 392.766 131.992C391.213 130.295 389.647 128.439 388.055 126.439C385.923 127.847 383.857 129.124 381.857 130.255C380.436 128.071 378.988 125.768 377.541 123.347C375.962 124.347 374.435 125.255 372.948 126.084C371.777 123.61 370.58 121.044 369.382 118.399C367.685 118.886 366.04 119.254 364.461 119.517C362.789 113.688 361.066 107.687 359.289 101.516C361.131 105.411 362.987 109.148 364.842 112.701C366.474 112.438 368.158 112.069 369.909 111.582C371.145 114.241 372.382 116.807 373.593 119.28C375.12 118.451 376.685 117.543 378.304 116.557C379.804 118.991 381.304 121.294 382.778 123.478C384.831 122.347 386.95 121.083 389.147 119.688C390.792 121.689 392.411 123.557 394.016 125.255C396.095 123.636 398.227 121.899 400.425 120.057C401.662 121.504 402.872 122.847 404.057 124.11C405.978 122.136 407.952 120.07 409.952 117.925C411.465 118.925 412.952 119.794 414.413 120.557C417.268 117.78 420.19 114.806 423.15 111.674Z" fill="#FA4A00"/>
<path d="M217.539 56.9267C215.749 57.2425 214.236 57.8215 212.946 58.6242C208.801 55.5713 204.353 54.1764 200.024 54.9397C196.681 55.5318 193.734 57.3346 191.247 60.0849C187.194 56.953 182.93 55.5187 178.785 56.2556C174.284 57.0451 170.521 60.2823 167.705 65.2565C164.731 63.8748 161.678 63.3615 158.665 63.8879C154.862 64.559 151.572 66.8092 148.887 70.2306C147.098 69.4148 145.097 69.1516 142.834 69.5595C130.228 71.7834 123.095 91.1537 126.911 112.814C130.728 134.487 144.045 150.251 156.664 148.028C158.322 147.738 159.73 147.172 160.915 146.396C165.073 149.449 169.508 150.857 173.85 150.094C176.653 149.607 179.18 148.238 181.39 146.198C185.93 150.304 190.826 152.304 195.563 151.462C200.655 150.567 204.801 146.527 207.709 140.422C210.196 141.316 212.722 141.593 215.223 141.145C219.118 140.461 222.486 138.106 225.21 134.526C227.053 135.474 229.105 135.829 231.382 135.421C243.989 133.197 251.121 113.827 247.305 92.1538C243.462 70.4675 230.145 54.7028 217.539 56.9267Z" fill="#070E14"/>
<path d="M174.732 60.9467C174.772 60.8151 174.693 61.1046 174.785 60.894C174.851 60.7624 174.943 60.4598 175.035 60.0387C175.219 59.1965 175.364 57.7885 175.075 56.0251C175.009 55.5777 174.903 55.1171 174.785 54.6303C174.732 54.3934 174.64 54.1434 174.574 53.8934C174.469 53.5775 174.377 53.2617 174.272 52.9327C173.772 51.4063 173.364 49.7351 173.114 48.0112C172.851 46.2742 172.745 44.4319 172.877 42.537C173.009 40.6421 173.39 38.6682 174.206 36.747C175.009 34.8389 176.338 32.9571 178.18 31.6807C179.983 30.3911 182.194 29.8516 183.996 29.8516C186.22 29.8516 187.931 30.5358 189.405 31.4965C190.852 32.4571 191.931 33.7072 192.629 35.01C193.339 36.3259 193.642 37.7207 193.589 38.9445C193.55 40.1815 193.195 41.1948 192.787 41.9317C192.392 42.6818 191.958 43.1555 191.668 43.4713C191.366 43.774 191.195 43.9319 191.195 43.9319L189.773 42.5896C189.773 42.5896 189.865 42.4449 190.063 42.1817C190.221 41.9054 190.471 41.5106 190.629 40.971C190.8 40.4447 190.879 39.7867 190.76 39.063C190.642 38.3524 190.3 37.5628 189.721 36.8654C189.142 36.1548 188.313 35.5232 187.365 35.1415C186.891 34.9442 186.391 34.8126 185.891 34.7599C185.641 34.7336 185.391 34.7205 185.141 34.7336C184.878 34.7468 184.641 34.7863 184.497 34.8126C182.18 35.2863 181.009 36.7206 180.522 38.9182C180.062 41.129 180.457 43.8266 181.273 46.1558C181.68 47.3401 182.167 48.4455 182.707 49.4587L182.944 49.9193L182.97 49.9719C182.957 49.9456 183.01 50.064 182.957 49.9325L182.97 49.9719L183.036 50.1167L183.167 50.393C183.338 50.7615 183.51 51.1299 183.654 51.4984C183.957 52.2353 184.22 52.959 184.431 53.6828C185.326 56.5647 185.497 59.2228 185.365 61.144C185.312 62.1047 185.194 62.8942 185.062 63.4732C184.97 63.9996 184.747 64.6575 184.786 64.526L174.732 60.9467Z" fill="#070E14"/>
<path d="M178.558 86.5645C166.412 87.933 156.819 87.0908 145.16 83.1563C145.16 83.1431 163.754 110.054 178.558 86.5645Z" fill="#FA4A00"/>
<path d="M189.676 84.6042C201.559 81.7355 210.283 77.6693 219.889 69.9844C219.889 69.9844 211.625 101.619 189.676 84.6042Z" fill="#FA4A00"/>
<path d="M194.077 107.66L186.115 96.8828L182.312 109.726L194.077 107.66Z" fill="#FA4A00"/>
<path d="M219.671 100.945C217.986 107.143 216.368 113.183 214.802 119.026C213.21 118.789 211.565 118.447 209.867 117.986C208.709 120.645 207.564 123.237 206.433 125.737C204.933 124.934 203.393 124.04 201.801 123.079C200.379 125.527 198.985 127.856 197.59 130.067C195.563 128.961 193.484 127.724 191.326 126.356C189.773 128.382 188.234 130.251 186.707 131.988C184.654 130.396 182.536 128.685 180.364 126.869C179.193 128.33 178.048 129.685 176.917 130.948C174.995 128.987 173.035 126.948 171.035 124.842C169.587 125.856 168.153 126.737 166.745 127.501C163.271 122.54 159.678 117.421 155.98 112.17C158.994 115.249 161.968 118.171 164.876 120.934C166.337 120.158 167.811 119.263 169.298 118.236C171.337 120.342 173.337 122.368 175.298 124.316C176.469 123.04 177.667 121.671 178.864 120.21C181.075 122.013 183.246 123.711 185.352 125.303C186.931 123.566 188.523 121.684 190.128 119.644C192.339 121 194.484 122.237 196.55 123.329C197.985 121.118 199.445 118.789 200.906 116.328C202.538 117.289 204.13 118.171 205.669 118.973C206.841 116.473 208.025 113.881 209.222 111.209C210.973 111.67 212.67 111.999 214.302 112.236C216.092 108.643 217.881 104.867 219.671 100.945Z" fill="#FA4A00"/>
</svg>
