<svg width="216" height="31" viewBox="0 0 216 31" fill="none" xmlns="http://www.w3.org/2000/svg">
<path d="M128.59 17.8268L133.865 27.7224H137.314L132.039 17.6328L128.59 17.8268Z" fill="white" fill-opacity="0.8"/>
<path d="M138.941 7.5484H146.651V27.7275H149.897V7.5484H157.606V5.41406H138.941V7.5484Z" fill="white" fill-opacity="0.8"/>
<path d="M65.6939 28.1143C70.563 28.1143 73.6062 25.98 73.8091 22.6815C74.012 19.383 72.186 17.6367 67.114 15.6964C62.8535 14.1441 61.4334 12.7859 61.4334 10.8456C61.4334 8.71129 63.4622 7.35308 66.5054 7.35308C68.9399 7.35308 70.9688 7.74114 72.186 8.32323L73.2004 6.38293C71.3745 5.60681 68.9399 5.21875 65.8967 5.21875C61.0276 5.21875 58.1873 7.74114 58.1873 11.0397C58.1873 14.3382 60.2161 16.0844 64.8823 17.8307C69.1428 19.383 70.3601 20.3531 70.3601 22.4874C70.3601 24.6218 68.3313 26.174 64.6794 25.98C62.8535 25.98 60.4189 25.2039 58.9988 24.4277L57.9844 26.368C59.2017 26.9501 61.6362 28.1143 65.6939 28.1143Z" fill="white" fill-opacity="0.8"/>
<path d="M100.191 5.60156H95.1189L88.6267 25.5867L82.1345 5.60156H77.0625V27.721H79.4971V7.34783L86.1921 27.721H90.4527L96.9448 7.34783V27.721H97.3506L100.191 20.1538V5.60156Z" fill="white" fill-opacity="0.8"/>
<path d="M135.082 6.9663C133.662 5.99615 131.633 5.41406 128.996 5.41406H120.678V18.9962L123.924 27.3395V7.5484H128.793C132.648 7.5484 133.865 9.29467 133.865 11.8171C133.865 14.5335 132.648 16.4738 128.184 16.4738H124.938V18.4141H130.213C134.474 18.4141 136.908 15.3096 136.908 12.0111C137.111 9.68273 136.3 7.93646 135.082 6.9663Z" fill="white" fill-opacity="0.8"/>
<path d="M206.5 5.60156H203.051L196.153 24.4225L189.052 5.60156H185.4L193.719 27.721H198.182L206.5 5.60156Z" fill="white" fill-opacity="0.8"/>
<path d="M163.691 7.34783H171.604V27.721H175.864V7.34783H183.777V5.60156H163.691V7.34783Z" fill="white" fill-opacity="0.8"/>
<path d="M37.9024 19.1889H42.3657V23.0695C41.5542 23.4576 39.9312 23.8457 38.3081 23.8457C33.439 23.8457 31.8159 21.5173 31.8159 16.6665C31.8159 12.0098 33.439 9.48741 38.3081 9.48741C40.9456 9.48741 42.5686 10.2635 43.7859 11.8158L47.032 8.90532C45.0032 6.1889 41.3513 5.21875 38.1052 5.21875C30.5986 5.21875 26.541 9.09935 26.541 16.6665C26.541 24.2337 30.1929 28.1143 38.1052 28.1143C41.7571 28.1143 45.2061 27.1442 47.2349 25.98V15.1143H37.9024V19.1889Z" fill="white" fill-opacity="0.8"/>
<path d="M14.7749 5.41406H9.5V27.7275H25.9334V23.4589H14.7749V5.41406Z" fill="white" fill-opacity="0.8"/>
<path d="M113.376 13.3657L116.419 11.6194L112.97 2.5L110.941 6.9627L113.376 13.3657Z" fill="#1999D6"/>
<path d="M116.416 11.6172L113.373 13.3635L114.793 16.662L119.257 19.1844L116.416 11.6172Z" fill="#30BEC2"/>
<path d="M111.141 19.3828L112.967 20.741L111.141 21.9052L119.459 28.3082L118.039 24.6216L111.141 19.3828Z" fill="#97C742"/>
<path d="M111.139 19.3828L103.43 24.8157L102.01 28.3082L111.139 21.9052L109.313 20.741L111.139 19.3828Z" fill="#F68524"/>
<path d="M111.138 19.3828L109.312 20.741L111.138 21.9052L112.964 20.741L111.138 19.3828Z" fill="#9D7230"/>
<path d="M119.254 19.1865L114.791 16.6641L118.037 24.6193L122.703 28.3059L119.254 19.1865Z" fill="#71C596"/>
<path d="M118.043 24.6172L119.463 28.3038H122.709L118.043 24.6172Z" fill="#38B24B"/>
<path d="M106.678 17.4375L101.809 20.348L98.5625 28.3032L103.432 24.8107L106.678 17.4375Z" fill="#F15C2A"/>
<path d="M98.5625 28.305H102.011L103.432 24.8125L98.5625 28.305Z" fill="#EF3B25"/>
<path d="M110.939 6.9627L109.113 2.5L105.664 11.2314L108.504 12.7836L110.939 6.9627Z" fill="#6E449B"/>
<path d="M105.665 11.2344L101.811 20.3538L106.68 17.4433L108.506 12.7866L105.665 11.2344Z" fill="#ED174F"/>
<path d="M112.964 2.5H109.109L110.935 6.9627L112.964 2.5Z" fill="#3C2E46"/>
</svg>
